<?xml version="1.0" encoding="UTF-8"?>
<svg version="1.1" xmlns="http://www.w3.org/2000/svg" width="1536" height="1024">
<path d="M0 0 C506.88 0 1013.76 0 1536 0 C1536 337.92 1536 675.84 1536 1024 C1029.12 1024 522.24 1024 0 1024 C0 686.08 0 348.16 0 0 Z " fill="#FEFEFE" transform="translate(0,0)"/>
<path d="M0 0 C1.63687668 -0.00114631 3.27375316 -0.00262509 4.91062927 -0.00440979 C9.23780169 -0.00738292 13.56493426 -0.00324904 17.89210129 0.00363541 C20.57854936 0.0078376 23.2649966 0.01078343 25.95144653 0.01351929 C67.32753136 0.06125729 67.32753136 0.06125729 87.98657227 0.39727783 C89.95981551 0.42873174 91.9331304 0.45603115 93.90649414 0.47869873 C122.75362186 0.83416037 148.21339554 7.42053691 169.625 27.8203125 C189.53495377 48.31676103 192.69963489 74.19035918 192.72363281 101.5859375 C192.72827659 102.98233669 192.73330326 104.37873466 192.73867798 105.77513123 C192.75165476 109.52978351 192.75821783 113.28441805 192.76268864 117.0390892 C192.76564365 119.39769468 192.7697527 121.75629556 192.77419281 124.11489868 C192.78782952 131.5318019 192.79751456 138.9486943 192.8013947 146.36560917 C192.80586496 154.85795502 192.82338102 163.3501391 192.8523953 171.84243584 C192.8741799 178.45359039 192.88410784 185.06469999 192.88543582 191.67588997 C192.88647202 195.6027974 192.89212129 199.52955203 192.91025543 203.4564209 C193.04687453 234.8585987 192.31976718 264.90053726 169.5625 289.1328125 C149.83134091 308.24028553 124.19375814 314.7308981 97.38671875 315.703125 C96.27984207 315.74404266 95.17296539 315.78496033 94.032547 315.82711792 C78.98643616 316.32125292 63.93362027 316.28333284 48.88110352 316.26318359 C45.48004401 316.2586579 42.07903792 316.25859067 38.67797852 316.26318359 C21.11194005 316.28686413 3.544795 316.23392354 -14.01788902 315.86080551 C-15.5596066 315.82936659 -17.10141588 315.8020625 -18.64328957 315.77954483 C-48.65392297 315.31799767 -73.67354873 306.73954704 -94.8984375 284.9765625 C-119.05578992 257.92032779 -115.59823061 218.80376348 -115.60475707 185.11240578 C-115.60547852 183.01059848 -115.60763258 180.90879732 -115.61025429 178.80699158 C-115.61942635 171.4380554 -115.62359832 164.06913701 -115.62280273 156.70019531 C-115.62219966 149.88467131 -115.63281741 143.06922583 -115.6485464 136.25372171 C-115.66168465 130.34567352 -115.66698422 124.43765089 -115.66634732 118.52958822 C-115.66609479 115.02505282 -115.66881082 111.52058802 -115.67952538 108.0160675 C-115.69114203 104.11289458 -115.6864212 100.20982792 -115.68041992 96.30664062 C-115.68603943 95.17594147 -115.69165894 94.04524231 -115.69744873 92.88027954 C-115.61039454 70.43869098 -109.69700483 47.19133263 -94.4375 30.1328125 C-93.79425781 29.39675781 -93.15101562 28.66070312 -92.48828125 27.90234375 C-75.61137565 9.77760779 -50.77573703 1.97763719 -26.62890625 0.58642578 C-25.51937843 0.5224142 -25.51937843 0.5224142 -24.38743591 0.45710945 C-16.25794535 0.02253451 -8.13901636 -0.0115736 0 0 Z " fill="#CD4D70" transform="translate(172.4375,337.8671875)"/>
<path d="M0 0 C1.32064453 1.10794922 1.32064453 1.10794922 2.66796875 2.23828125 C3.45558594 2.86347656 4.24320313 3.48867188 5.0546875 4.1328125 C21.18653901 17.5056388 33.13810818 38.62838975 36.66796875 59.23828125 C38.51985958 90.04097305 33.09228439 118.81493759 12.7109375 142.94140625 C12.03675781 143.699375 11.36257813 144.45734375 10.66796875 145.23828125 C10.00410156 145.99625 9.34023438 146.75421875 8.65625 147.53515625 C-6.22894759 163.49340875 -28.22313356 172.29837807 -49.85351562 173.36230469 C-76.91476706 174.12287421 -101.72828378 170.25334678 -122.70703125 151.67578125 C-124.25463164 150.20282396 -125.79690755 148.72423729 -127.33203125 147.23828125 C-127.93273437 146.72265625 -128.5334375 146.20703125 -129.15234375 145.67578125 C-139.92609382 136.05457189 -146.13915287 121.75898716 -150.33203125 108.23828125 C-150.74453125 106.995625 -151.15703125 105.75296875 -151.58203125 104.47265625 C-154.36500999 95.23456707 -154.71226422 86.10122176 -154.76953125 76.48828125 C-154.77968262 75.28083252 -154.78983398 74.07338379 -154.80029297 72.8293457 C-154.56110772 48.1612614 -143.62441322 26.3081688 -126.890625 8.6640625 C-93.56414937 -22.79569126 -36.69409566 -29.46421986 0 0 Z " fill="#FEFDFD" transform="translate(269.33203125,418.76171875)"/>
<path d="M0 0 C2.85139351 2.04387887 5.17511263 4.07901109 7.44140625 6.75 C7.93640625 0.315 7.93640625 0.315 8.44140625 -6.25 C18.67140625 -6.25 28.90140625 -6.25 39.44140625 -6.25 C39.50932603 11.61429462 39.5645055 29.47847773 39.59684277 47.34286594 C39.61226167 55.63902497 39.63325507 63.93509762 39.66772461 72.23120117 C39.69778037 79.46849869 39.71701734 86.7057336 39.72367173 93.94309181 C39.72755682 97.76941209 39.73658126 101.59555339 39.75859642 105.42181587 C39.77921838 109.03580414 39.78518922 112.64954262 39.78072929 116.26358414 C39.78192624 118.19661425 39.79793199 120.12961825 39.81466675 122.06257629 C39.7524812 140.00937219 35.63381749 156.34486741 22.8203125 169.5703125 C4.85335034 186.03265221 -16.06296209 187.87281092 -39.42578125 186.96142578 C-45.55399217 186.54784796 -50.90139058 185.19532224 -56.55859375 182.75 C-57.57179688 182.34910156 -58.585 181.94820312 -59.62890625 181.53515625 C-70.34567051 176.80717202 -78.26456972 168.75169935 -85.55859375 159.75 C-84.22697303 156.70810444 -82.88249924 154.90650212 -80.29296875 152.83984375 C-79.32810547 152.06737305 -79.32810547 152.06737305 -78.34375 151.27929688 C-77.33634766 150.49135742 -77.33634766 150.49135742 -76.30859375 149.6875 C-75.65246094 149.15833984 -74.99632812 148.62917969 -74.3203125 148.08398438 C-70.57449188 145.11637102 -66.94795544 142.71976014 -62.55859375 140.75 C-62.15769531 141.25789062 -61.75679687 141.76578125 -61.34375 142.2890625 C-53.60597714 151.65861059 -43.97050373 157.91814614 -31.6875 159.1328125 C-20.94419381 159.60659358 -12.03275624 157.96997756 -3.62109375 150.9375 C2.69793988 144.83286215 6.06162373 137.99920173 6.6003418 129.13476562 C6.63721766 126.3371498 6.61656599 123.54737028 6.56640625 120.75 C6.55738281 119.78449219 6.54835938 118.81898438 6.5390625 117.82421875 C6.5157126 115.46587901 6.48296672 113.10807714 6.44140625 110.75 C5.9810498 111.2234082 5.52069336 111.69681641 5.04638672 112.18457031 C4.43166504 112.80944336 3.81694336 113.43431641 3.18359375 114.078125 C2.5788623 114.6959082 1.97413086 115.31369141 1.35107422 115.95019531 C-9.41662961 126.09843267 -23.48720715 127.24520097 -37.58203125 127.02734375 C-52.63720941 126.44607391 -64.84074372 120.46279579 -75.16796875 109.6484375 C-82.16293025 101.16761816 -86.77541488 91.37002465 -89.55859375 80.75 C-89.78289062 79.92886719 -90.0071875 79.10773438 -90.23828125 78.26171875 C-94.94175881 57.54708814 -91.1535124 35.23946333 -80.37109375 17.125 C-71.2668929 3.50794098 -59.27485407 -4.84611533 -43.34375 -8.58984375 C-28.00582309 -11.26487951 -13.12697162 -8.28695895 0 0 Z " fill="#0C1114" transform="translate(1421.55859375,457.25)"/>
<path d="M0 0 C10.89 0 21.78 0 33 0 C33.33 23.43 33.66 46.86 34 71 C36.64 68.36 39.28 65.72 42 63 C45.6328125 60.72265625 45.6328125 60.72265625 49.125 59.0625 C50.28257813 58.49660156 51.44015625 57.93070312 52.6328125 57.34765625 C67.29843257 51.47800553 85.73938492 54.59494073 100.015625 60.1796875 C114.15759795 67.00824015 123.56926702 80.00276156 129.3046875 94.23828125 C130.3177199 97.14797651 131.21916706 100.01969211 132 103 C132.26490234 103.96111694 132.26490234 103.96111694 132.53515625 104.94165039 C134.13293299 111.25272687 134.30984621 117.3240451 134.25 123.8125 C134.24250732 124.87766846 134.23501465 125.94283691 134.22729492 127.0402832 C133.96372353 146.25743534 128.3946339 164.74761404 115 179.12890625 C101.50583814 191.75332721 86.7899309 196.58823384 68.515625 196.24609375 C54.16666075 195.24166625 43.35373543 189.76767493 33 180 C32.505 186.435 32.505 186.435 32 193 C21.44 193 10.88 193 0 193 C0 129.31 0 65.62 0 0 Z " fill="#0D1114" transform="translate(986,394)"/>
<path d="M0 0 C1.32451172 0.56074219 1.32451172 0.56074219 2.67578125 1.1328125 C8.79172544 3.93556689 13.84308247 7.72329845 19 12 C19.83273437 12.64324219 20.66546875 13.28648437 21.5234375 13.94921875 C33.09323826 23.52988972 41.45525022 40.13740749 43 55 C43.83792194 68.07969894 44.10054674 80.73439951 39 93 C38.525625 94.1653125 38.05125 95.330625 37.5625 96.53125 C30.33386288 112.51765901 17.85741005 123.73113901 1.9375 130.875 C1.30110596 131.16157471 0.66471191 131.44814941 0.0090332 131.7434082 C-15.98688608 138.5051993 -35.92302328 138.20321704 -52 132 C-69.4460218 124.3125977 -82.30593841 111.93787025 -89.78125 94.30859375 C-96.06035089 77.26244485 -97.02295478 55.95573194 -90 39 C-89.57589844 37.97003906 -89.15179687 36.94007813 -88.71484375 35.87890625 C-80.71066753 18.37673819 -65.99133944 5.33323333 -48.0625 -1.375 C-33.48929134 -6.43056258 -14.11450896 -6.37967466 0 0 Z " fill="#0D1114" transform="translate(1277,453)"/>
<path d="M0 0 C11.76427312 10.06403511 23.47147808 26.12688774 25 42 C26.57886116 62.30891271 21.06010569 81.7771855 8.6640625 98.0703125 C6.53478772 100.50480755 4.34182516 102.77113857 2 105 C1.43925781 105.56847656 0.87851563 106.13695312 0.30078125 106.72265625 C-13.50388298 119.79196307 -31.73096718 120.73971779 -49.6484375 120.34765625 C-63.74192623 119.76581497 -79.0969736 115.74097478 -89 105 C-105.37584543 85.4978568 -110.89461952 64.04645363 -109 39 C-106.49382184 23.20435605 -95.72683137 8.51493893 -83.234375 -1.13671875 C-80.54694721 -2.90658191 -77.84113246 -4.49039543 -75 -6 C-74.11570313 -6.47050781 -73.23140625 -6.94101562 -72.3203125 -7.42578125 C-48.45860304 -19.14914286 -21.16025295 -15.57919893 0 0 Z " fill="#DD3D63" transform="translate(253,443)"/>
<path d="M0 0 C11.44986825 8.75973768 15.74515919 20.75069848 17.73352432 34.61746216 C18.62584941 42.59566977 18.35859689 50.67333168 18.29296875 58.6875 C18.28735865 60.72729171 18.28309526 62.76708753 18.28010559 64.80688477 C18.268768 70.12015363 18.23939909 75.43316807 18.20599365 80.74633789 C18.17505083 86.19023194 18.16154902 91.63416796 18.14648438 97.078125 C18.1145164 107.71887855 18.06184195 118.3593781 18 129 C7.77 129 -2.46 129 -13 129 C-13 124.71 -13 120.42 -13 116 C-13.66 116 -14.32 116 -15 116 C-15.23847656 116.5878125 -15.47695313 117.175625 -15.72265625 117.78125 C-20.02296797 125.25090461 -30.13044469 128.75155562 -38 131 C-51.06984174 134.41051912 -67.03813586 132.99991008 -78.765625 126.45703125 C-89.29190541 119.57082685 -94.71651474 111.70859297 -97.58984375 99.4921875 C-99.2919152 89.15007714 -98.07168898 78.19701446 -92.59765625 69.1640625 C-83.73389105 57.15788666 -70.17934927 52.88528838 -56.01049805 50.49584961 C-53.01047361 50.07870336 -50.00990017 49.71342516 -47 49.375 C-45.93144775 49.25020264 -44.86289551 49.12540527 -43.76196289 48.99682617 C-33.85777945 47.88901021 -23.95755169 47.32264693 -14 47 C-14.39906567 44.45444476 -14.8184966 41.91508703 -15.25 39.375 C-15.41435547 38.30572266 -15.41435547 38.30572266 -15.58203125 37.21484375 C-16.63227534 31.18975926 -18.86823797 27.07414684 -23.3125 22.75 C-30.23132335 18.24471968 -37.95548541 18.21208503 -46 19 C-51.70612917 20.52769015 -55.9500869 22.80385176 -59 28 C-60.45170592 31.29289392 -61.76609455 34.61988668 -63 38 C-73.03634737 35.80315508 -83.05212014 33.57474538 -93 31 C-92.79906205 20.9531027 -87.56289703 11.26682085 -80.8125 4 C-59.79377739 -15.07254459 -23.1524063 -14.82794561 0 0 Z " fill="#0D1114" transform="translate(946,458)"/>
<path d="M0 0 C10.45700465 8.61806791 14.83255696 19.83840744 16.43359375 33.09765625 C16.93307352 40.54095512 16.78465862 48.00979255 16.7265625 55.46484375 C16.72095552 57.59717508 16.71669064 59.72951032 16.71369934 61.86184692 C16.70233726 67.42831408 16.67294597 72.9945401 16.6395874 78.56091309 C16.60869866 84.25932556 16.59515411 89.95777764 16.58007812 95.65625 C16.54806668 106.8035075 16.4953709 117.95052394 16.43359375 129.09765625 C5.54359375 129.09765625 -5.34640625 129.09765625 -16.56640625 129.09765625 C-16.58098877 126.38812744 -16.59557129 123.67859863 -16.6105957 120.88696289 C-16.66103167 111.91425691 -16.72764264 102.94172283 -16.80212116 93.96918583 C-16.84676489 88.53147438 -16.88603429 83.09383681 -16.9128418 77.65600586 C-16.9389345 72.40388778 -16.97937923 67.15205496 -17.02959251 61.90011406 C-17.04622089 59.9007975 -17.05776017 57.90143165 -17.06402016 55.90205574 C-17.07370514 53.09203624 -17.1018167 50.28273992 -17.1340332 47.47290039 C-17.13259811 46.65434067 -17.13116302 45.83578094 -17.12968445 44.99241638 C-17.2470177 37.71125184 -18.92837565 29.8951945 -23.56640625 24.09765625 C-27.61716798 21.05700813 -31.48871577 19.50387149 -36.56640625 19.09765625 C-37.22253906 19.03449219 -37.87867188 18.97132813 -38.5546875 18.90625 C-46.19841892 18.48536958 -53.83061222 20.74886398 -60.00390625 25.34765625 C-66.91859559 32.76829847 -68.85791154 41.92678845 -68.88525391 51.78686523 C-68.90032234 53.04660912 -68.90032234 53.04660912 -68.91569519 54.33180237 C-68.94639002 57.08577846 -68.96352399 59.83965794 -68.98046875 62.59375 C-68.99919143 64.51189497 -69.01876566 66.4300318 -69.03915405 68.34815979 C-69.09036498 73.38027129 -69.13004968 78.41240947 -69.16729736 83.44464111 C-69.20740635 88.58620746 -69.25846719 93.72766391 -69.30859375 98.86914062 C-69.40522235 108.94524278 -69.48865582 119.02139072 -69.56640625 129.09765625 C-80.45640625 129.09765625 -91.34640625 129.09765625 -102.56640625 129.09765625 C-102.56640625 84.54765625 -102.56640625 39.99765625 -102.56640625 -5.90234375 C-92.33640625 -5.90234375 -82.10640625 -5.90234375 -71.56640625 -5.90234375 C-71.23640625 -1.61234375 -70.90640625 2.67765625 -70.56640625 7.09765625 C-68.49359375 5.05578125 -68.49359375 5.05578125 -66.37890625 2.97265625 C-47.91051933 -13.63842831 -19.84098494 -14.70709233 0 0 Z " fill="#0E1215" transform="translate(604.56640625,457.90234375)"/>
<path d="M0 0 C5.11795528 4.58040199 8.53562784 10.97904479 10.78515625 17.41015625 C10.65258789 19.40844727 10.65258789 19.40844727 9.78515625 21.41015625 C7.65209961 22.87402344 7.65209961 22.87402344 4.875 24.20703125 C3.88564453 24.69042969 2.89628906 25.17382812 1.87695312 25.671875 C0.83603516 26.16300781 -0.20488281 26.65414062 -1.27734375 27.16015625 C-2.32212891 27.66675781 -3.36691406 28.17335938 -4.44335938 28.6953125 C-7.02804137 29.94634579 -9.61834644 31.18388312 -12.21484375 32.41015625 C-13.94663685 30.1417512 -15.52575607 27.90626388 -17.02734375 25.47265625 C-20.8911254 20.06336194 -24.85385977 17.17536819 -31.21484375 15.41015625 C-39.78792906 14.37659901 -47.17605981 15.12758375 -54.21484375 20.41015625 C-56.86448601 23.81683916 -57.43654885 26.27273648 -57.15234375 30.47265625 C-56.41276039 34.43470998 -55.31208109 36.69063078 -52.21484375 39.41015625 C-45.14547838 42.96414477 -37.82351001 44.43939342 -30.08984375 45.78515625 C-13.67716493 48.88065707 2.5084906 52.66189869 12.5 67.2734375 C18.41005427 77.09957637 19.52460292 87.42629147 17.08984375 98.6015625 C13.28048694 110.10966143 4.80461754 119.34452374 -5.77734375 125.16015625 C-24.84355111 133.77352711 -47.21350205 134.0727227 -66.83984375 127.22265625 C-72.83575882 124.80013606 -77.44163524 121.73323901 -82.21484375 117.41015625 C-82.84003906 116.88808594 -83.46523438 116.36601563 -84.109375 115.828125 C-89.52484396 110.97897959 -92.27406486 104.97035532 -95.21484375 98.41015625 C-92.73362076 95.54664113 -90.105891 94.25533623 -86.671875 92.7109375 C-85.59873047 92.22431641 -84.52558594 91.73769531 -83.41992188 91.23632812 C-81.7405957 90.48706055 -81.7405957 90.48706055 -80.02734375 89.72265625 C-78.89619141 89.21154297 -77.76503906 88.70042969 -76.59960938 88.17382812 C-73.80735726 86.91319109 -71.01242461 85.65891219 -68.21484375 84.41015625 C-66.02363123 86.60136877 -65.22957034 88.41074747 -63.96484375 91.22265625 C-60.89440311 97.41709172 -57.67447884 100.62334099 -51.15234375 103.22265625 C-42.21539452 105.85559584 -31.64893563 105.54881844 -23.21484375 101.41015625 C-20.17987663 99.26782652 -18.49237839 96.95292231 -17.81640625 93.1953125 C-17.66756135 89.7547055 -18.04555216 86.94221553 -19.08984375 83.66015625 C-25.76614362 76.59113286 -35.70037001 75.23977473 -44.83984375 73.59765625 C-59.39414925 70.71773954 -74.46059537 66.50957498 -84.21484375 54.41015625 C-90.93913448 43.43668605 -93.21803914 32.01584017 -90.56640625 19.30078125 C-86.93278653 8.30675237 -79.73155032 0.65872953 -69.7890625 -4.9609375 C-47.97626092 -15.85118066 -19.87344854 -14.26542073 0 0 Z " fill="#0D1114" transform="translate(730.21484375,459.58984375)"/>
<path d="M0 0 C0 12.87 0 25.74 0 39 C10.23 39 20.46 39 31 39 C31 47.58 31 56.16 31 65 C20.77 65 10.54 65 0 65 C0.09098808 76.86639016 0.09098808 76.86639016 0.20898438 88.73242188 C0.26314863 93.57768785 0.31426422 98.42284211 0.34643555 103.26831055 C0.37259614 107.17832144 0.41308666 111.08795352 0.46318626 114.99772835 C0.47976931 116.48347292 0.49133659 117.96928288 0.49761391 119.45510674 C0.23227393 133.07608022 0.23227393 133.07608022 6.5 144.5625 C14.8334698 147.9851751 22.80900211 145.88554534 31 143 C31.67806317 146.1851837 32.34035151 149.37345613 33 152.5625 C33.19078125 153.45775391 33.3815625 154.35300781 33.578125 155.27539062 C34.60729907 160.29261421 35.22479032 164.87899545 35 170 C33.60550891 170.483059 32.20933293 170.96125517 30.8125 171.4375 C30.03519531 171.70433594 29.25789062 171.97117187 28.45703125 172.24609375 C15.72894147 176.15153306 -0.94662861 175.82838273 -13 170 C-21.93340145 164.76738549 -27.64664519 156.72472896 -31 147 C-33.3223974 137.85473474 -33.26118387 128.75057686 -33.1953125 119.39453125 C-33.19157384 117.81841717 -33.18873091 116.24230073 -33.18673706 114.66618347 C-33.17916766 110.55465063 -33.15957822 106.44326322 -33.1373291 102.33178711 C-33.11672494 98.12160203 -33.10770445 93.91139304 -33.09765625 89.70117188 C-33.07632471 81.46737434 -33.04119872 73.23372212 -33 65 C-39.93 65 -46.86 65 -54 65 C-54 56.42 -54 47.84 -54 39 C-47.07 39 -40.14 39 -33 39 C-33 26.79 -33 14.58 -33 2 C-29.14126114 1.03531528 -25.5071728 0.66864797 -21.5625 0.4375 C-20.26441406 0.35371094 -18.96632813 0.26992188 -17.62890625 0.18359375 C-11.75690235 -0.0493043 -5.87662074 0 0 0 Z " fill="#0E1215" transform="translate(804,414)"/>
<path d="M0 0 C11.55 0 23.1 0 35 0 C35 64.02 35 128.04 35 194 C23.45 194 11.9 194 0 194 C0 129.98 0 65.96 0 0 Z " fill="#0E1215" transform="translate(442,393)"/>
<path d="M0 0 C10.89 0 21.78 0 33 0 C33 64.02 33 128.04 33 194 C22.11 194 11.22 194 0 194 C0 129.98 0 65.96 0 0 Z " fill="#0D1214" transform="translate(1136,393)"/>
<path d="M0 0 C8.71408091 6.18418645 14.57630064 14.15881179 16.80859375 24.7109375 C17.05827936 28.58257776 17.03983252 32.4570541 17.05859375 36.3359375 C17.07921875 37.37878906 17.09984375 38.42164063 17.12109375 39.49609375 C17.18064275 51.42078121 14.02165312 61.72291589 5.9921875 70.75390625 C-0.93296156 77.3153101 -8.08410952 79.90008116 -17.56640625 80.3359375 C-27.49209081 80.02544686 -34.89599107 76.55684829 -41.69140625 69.3359375 C-51.05246226 57.66853436 -53.57329232 43.46140682 -52.19140625 28.7109375 C-50.0131469 17.61042938 -45.2650792 8.42563212 -36.44921875 1.21875 C-25.5176354 -6.08158075 -11.39037683 -6.70022166 0 0 Z " fill="#FDFDFD" transform="translate(1269.19140625,482.2890625)"/>
<path d="M0 0 C9.71303455 6.88006614 14.92979776 15.60083555 17.625 27.2109375 C17.686875 28.3659375 17.74875 29.5209375 17.8125 30.7109375 C17.86277344 31.57976563 17.91304687 32.44859375 17.96484375 33.34375 C18.38173965 46.11744034 15.68271878 59.07261973 6.92578125 68.80859375 C-1.69454117 76.78535576 -10.25096472 79.1151309 -21.8359375 78.984375 C-30.63641481 78.26638734 -37.28812058 74.12387896 -43.1875 67.7109375 C-50.8011433 58.5309457 -51.4554502 47.55673547 -51.5625 36.0859375 C-51.57643799 35.12034912 -51.59037598 34.15476074 -51.60473633 33.15991211 C-51.5291275 21.64478533 -48.29470334 12.58345454 -40.62890625 3.95703125 C-29.93835468 -6.27205767 -12.57014199 -7.4074051 0 0 Z " fill="#FDFDFD" transform="translate(1069.1875,482.2890625)"/>
<path d="M0 0 C8.4875749 5.58675816 13.86917369 14.05770495 16 24 C16.80879363 39.55372375 15.94778301 53.77676546 5.21875 66.03515625 C-1.52759061 72.5464809 -9.34492875 75.16431481 -18.625 75.5 C-28.4534056 75.13943127 -35.34823302 71.11753622 -42 64 C-48.76685638 55.54582359 -50.55466613 45.72016591 -50.4375 35.125 C-50.42992676 34.16190918 -50.42235352 33.19881836 -50.41455078 32.20654297 C-50.16637589 21.46980876 -47.85134782 11.76468836 -40 4 C-28.29786655 -5.41212888 -13.45423801 -7.30847497 0 0 Z " fill="#FDFDFD" transform="translate(1414,481)"/>
<path d="M0 0 C0.47515262 9.81982075 -1.38439417 19.36912793 -8 27 C-16.76511866 34.41410413 -25.73610413 35.91564573 -37 35 C-42.30745124 33.29403353 -44.79967354 30.38901915 -48 26 C-49.54377354 21.36867939 -49.4900275 16.83635833 -49 12 C-46.4585721 7.02303704 -42.11193246 4.83113999 -37 3 C-25.22352885 -0.15541811 -12.13907726 0 0 0 Z " fill="#FCFCFC" transform="translate(932,529)"/>
<path d="M0 0 C5.06498987 2.67752768 8.36049163 6.7129049 11.1484375 11.625 C12.87797863 18.38593352 12.26296351 24.16748784 8.8359375 30.3125 C4.91366489 35.13129206 -0.02081934 38.5160319 -6.17578125 39.69921875 C-11.52436464 40.0039514 -15.82102104 38.38134334 -20.1640625 35.3125 C-25.14838586 30.65899456 -27.91261723 26.38013228 -28.4765625 19.5 C-28.29720658 14.20900027 -27.18890592 9.52319861 -23.546875 5.546875 C-16.63359423 -0.56529598 -9.1851511 -2.91802634 0 0 Z " fill="#FDFBFD" transform="translate(310.1640625,386.6875)"/>
<path d="M0 0 C1.63687668 -0.00114631 3.27375316 -0.00262509 4.91062927 -0.00440979 C9.23780169 -0.00738292 13.56493426 -0.00324904 17.89210129 0.00363541 C20.57854936 0.0078376 23.2649966 0.01078343 25.95144653 0.01351929 C67.32753136 0.06125729 67.32753136 0.06125729 87.98657227 0.39727783 C89.95981551 0.42873174 91.9331304 0.45603115 93.90649414 0.47869873 C122.75362186 0.83416037 148.21339554 7.42053691 169.625 27.8203125 C185.65922369 44.32686216 192.1545487 65.28166312 191.85546875 87.96875 C191.85122391 89.2141153 191.84697906 90.45948059 191.84260559 91.74258423 C191.82600442 95.66456045 191.78838765 99.58599536 191.75 103.5078125 C191.73320686 106.19009106 191.72103795 108.87238399 191.70898438 111.5546875 C191.67616199 118.0809094 191.626152 124.60682226 191.5625 131.1328125 C191.2325 131.1328125 190.9025 131.1328125 190.5625 131.1328125 C190.55219254 130.56619904 190.54188507 129.99958557 190.53126526 129.415802 C190.42244112 123.47762257 190.30791289 117.53957194 190.19018555 111.6015625 C190.14707808 109.3903271 190.10538784 107.17906357 190.06518555 104.96777344 C190.00689205 101.77530467 189.94337307 98.58297438 189.87890625 95.390625 C189.85383751 93.92594284 189.85383751 93.92594284 189.82826233 92.43167114 C189.56731058 80.13037537 188.95456666 67.36628471 183.5625 56.1328125 C183.211875 55.2459375 182.86125 54.3590625 182.5 53.4453125 C181.61671474 51.1656076 181.61671474 51.1656076 180.5625 49.1953125 C179.5625 47.1328125 179.5625 47.1328125 178.625 44.0703125 C177.56736033 41.14624988 176.77942656 40.16499518 174.5625 38.1328125 C174.28019531 37.51535156 173.99789063 36.89789063 173.70703125 36.26171875 C172.3766393 33.78709891 170.90788932 32.48186331 168.75 30.6953125 C166.35243045 28.68083755 164.20209498 26.74537711 162.0625 24.4453125 C158.89009875 21.51084135 155.48494027 19.87503783 151.5625 18.1328125 C151.5625 17.4728125 151.5625 16.8128125 151.5625 16.1328125 C149.5825 15.6378125 149.5825 15.6378125 147.5625 15.1328125 C147.5625 14.4728125 147.5625 13.8128125 147.5625 13.1328125 C145.5825 13.1328125 143.6025 13.1328125 141.5625 13.1328125 C141.5625 12.4728125 141.5625 11.8128125 141.5625 11.1328125 C140.593125 10.8646875 139.62375 10.5965625 138.625 10.3203125 C135.76443943 9.51452079 132.98445434 8.57308699 130.1875 7.5703125 C126.26099977 6.23004913 122.53921088 5.6496059 118.41015625 5.34375 C116.5625 5.1328125 116.5625 5.1328125 114.5625 4.1328125 C113.5725 4.4628125 112.5825 4.7928125 111.5625 5.1328125 C109.98883634 4.8825223 108.42642742 4.55881693 106.875 4.1953125 C98.59527714 2.56144719 89.588856 2.25633049 81.26953125 3.70703125 C78.5625 4.1328125 78.5625 4.1328125 75.5625 3.1328125 C74.20521582 3.04284574 72.84395078 3.00654165 71.48368835 3.00582886 C70.65523407 3.00300903 69.82677979 3.00018921 68.97322083 2.99728394 C67.6149543 3.00032028 67.6149543 3.00032028 66.22924805 3.00341797 C65.27284424 3.00166565 64.31644043 2.99991333 63.33105469 2.99810791 C60.16209104 2.99369858 56.99318299 2.99662488 53.82421875 3 C51.62327565 2.99932653 49.42233262 2.99835614 47.22138977 2.99710083 C42.60372206 2.99562496 37.98607367 2.99777425 33.3684082 3.00244141 C27.45353748 3.00812859 21.53871223 3.00486539 15.62384319 2.99886894 C11.07621418 2.99525178 6.52859591 2.99640741 1.98096657 2.99899673 C-0.19949537 2.99966333 -2.37995829 2.99884693 -4.56041908 2.99651718 C-7.61232704 2.99397287 -10.66416193 2.99785685 -13.71606445 3.00341797 C-14.61550278 3.00139374 -15.5149411 2.99936951 -16.44163513 2.99728394 C-20.89061365 3.01227394 -25.05878052 3.23699658 -29.4375 4.1328125 C-30.25089844 4.28621094 -31.06429687 4.43960937 -31.90234375 4.59765625 C-32.71832031 4.75363281 -33.53429687 4.90960938 -34.375 5.0703125 C-38.96496882 5.92426019 -43.55177335 6.52007788 -48.1875 7.0703125 C-53.45877462 7.76641832 -57.71194102 8.58828074 -62.4375 11.1328125 C-63.32179687 11.60203125 -64.20609375 12.07125 -65.1171875 12.5546875 C-68.85272354 14.5562214 -72.54991472 16.58030985 -76.1484375 18.8203125 C-78.4375 20.1328125 -78.4375 20.1328125 -80.4375 20.1328125 C-80.7675 20.7928125 -81.0975 21.4528125 -81.4375 22.1328125 C-85.49807275 26.43948057 -89.95524233 30.27339957 -94.4375 34.1328125 C-94.1075 34.7928125 -93.7775 35.4528125 -93.4375 36.1328125 C-94.22125 36.4834375 -95.005 36.8340625 -95.8125 37.1953125 C-99.29434833 39.76524817 -99.35690015 42.02653307 -100.4375 46.1328125 C-101.3965625 47.0609375 -101.3965625 47.0609375 -102.375 48.0078125 C-106.32157142 52.07397699 -107.38619669 57.80666555 -108 63.3203125 C-108.41069547 66.89923018 -109.28367136 69.74344087 -110.4375 73.1328125 C-110.79293427 75.46288161 -111.1288753 77.79608266 -111.4375 80.1328125 C-111.7675 81.1228125 -112.0975 82.1128125 -112.4375 83.1328125 C-112.58820797 85.26942508 -112.6860966 87.40993374 -112.75390625 89.55078125 C-112.79580078 90.80439453 -112.83769531 92.05800781 -112.88085938 93.34960938 C-112.92017578 94.65994141 -112.95949219 95.97027344 -113 97.3203125 C-113.04320992 98.65561228 -113.086825 99.99089902 -113.13085938 101.32617188 C-113.23706502 104.59494547 -113.33910997 107.86379583 -113.4375 111.1328125 C-113.7675 111.1328125 -114.0975 111.1328125 -114.4375 111.1328125 C-115.97414084 81.92448924 -115.03568057 53.15941015 -94.4375 30.1328125 C-93.79425781 29.39675781 -93.15101562 28.66070312 -92.48828125 27.90234375 C-75.61137565 9.77760779 -50.77573703 1.97763719 -26.62890625 0.58642578 C-25.51937843 0.5224142 -25.51937843 0.5224142 -24.38743591 0.45710945 C-16.25794535 0.02253451 -8.13901636 -0.0115736 0 0 Z " fill="#5915BA" transform="translate(172.4375,337.8671875)"/>
<path d="M0 0 C0.99 0.33 1.98 0.66 3 1 C2.67 64.03 2.34 127.06 2 192 C9.26 192 16.52 192 24 192 C26.31 192.33 28.62 192.66 31 193 C30.99738159 191.87614899 30.99476318 190.75229797 30.99206543 189.59439087 C30.9129226 151.63069153 31.16121387 113.6713427 31.44538212 75.70902658 C31.5073158 67.42518826 31.56709462 59.14133474 31.62675762 50.85747981 C31.74890004 33.90496952 31.87354279 16.95247867 32 0 C32.33 0 32.66 0 33 0 C33 64.02 33 128.04 33 194 C22.11 194 11.22 194 0 194 C0 129.98 0 65.96 0 0 Z " fill="#2E2F30" transform="translate(1136,393)"/>
<path d="M0 0 C4.47531555 1.40652774 6.76271706 3.6797098 10 7 C11.31747324 7.69748583 12.64914193 8.36959957 14 9 C14.433125 9.474375 14.86625 9.94875 15.3125 10.4375 C18.15150097 13.0662046 22.09143062 15 26 15 C26.433125 15.474375 26.86625 15.94875 27.3125 16.4375 C29.4805466 18.44495056 31.1090016 18.57692706 34 19 C36.3394587 19.52826487 38.48987119 20.17813498 40.75 21 C44.54901629 22.16892809 48.04780302 22.560867 52 23 C52.78375 23.185625 53.5675 23.37125 54.375 23.5625 C58.56278509 24.26046418 62.76438378 24.07402048 67 24 C67 24.66 67 25.32 67 26 C67.79630829 25.9285376 68.59261658 25.8570752 69.41305542 25.78344727 C80.69507804 24.89342352 91.93684387 24.88286318 103.24908829 24.92483521 C106.76338555 24.93775017 110.27764452 24.94415145 113.79196167 24.94897461 C121.23632522 24.96031563 128.68065652 24.97959434 136.125 25 C144.79206993 25.02363531 153.45912233 25.04398041 162.12621689 25.05593872 C165.5856441 25.06241174 169.04501605 25.07491134 172.50442505 25.08764648 C174.61899772 25.09127788 176.7335709 25.09462975 178.84814453 25.09765625 C179.8071315 25.10282257 180.76611847 25.10798889 181.75416565 25.11331177 C185.99527516 25.1136494 189.85128331 24.97168315 194 24 C195.19625 24.020625 196.3925 24.04125 197.625 24.0625 C201.13271366 24.30094602 201.13271366 24.30094602 204 22 C206.05859375 21.91015625 206.05859375 21.91015625 208.4375 22.0625 C216.94940097 22.2497119 226.14887907 19.98530519 233.4375 15.5 C236 14 236 14 239.25 12.9375 C242.13618706 12.31285945 242.13618706 12.31285945 243 10 C243.99 10.495 243.99 10.495 245 11 C233.44076686 23.600365 210.10289668 26.45083756 193.71875 27.3425293 C191.75029643 27.42697789 189.78150247 27.50371859 187.8125 27.57421875 C186.1534539 27.63517227 186.1534539 27.63517227 184.46089172 27.69735718 C169.41785676 28.18816912 154.36795492 28.15051048 139.31860352 28.13037109 C135.91754401 28.1258454 132.51653792 28.12577817 129.11547852 28.13037109 C111.54944005 28.15405163 93.982295 28.10111104 76.41961098 27.72799301 C74.8778934 27.69655409 73.33608412 27.66925 71.79421043 27.64673233 C47.59348162 27.27453833 22.1116794 22.29767134 4 5 C2.63775501 3.35687975 1.29652617 1.6954573 0 0 Z " fill="#FDDE42" transform="translate(82,626)"/>
<path d="M0 0 C10.56 0 21.12 0 32 0 C32 0.33 32 0.66 32 1 C22.1 1 12.2 1 2 1 C2.33 63.37 2.66 125.74 3 190 C11.91 190 20.82 190 30 190 C30 185.38 30 180.76 30 176 C30.99 176.33 31.98 176.66 33 177 C32.34 177 31.68 177 31 177 C31.495 177.99 31.495 177.99 32 179 C32 183.29 32 187.58 32 192 C21.44 192 10.88 192 0 192 C0 128.64 0 65.28 0 0 Z " fill="#020405" transform="translate(986,395)"/>
<path d="M0 0 C1.00579102 0.15678223 2.01158203 0.31356445 3.04785156 0.47509766 C9.6864141 1.61429159 15.60601928 3.49416935 21.75 6.25 C21.75 6.91 21.75 7.57 21.75 8.25 C24.72 8.745 24.72 8.745 27.75 9.25 C27.75 9.91 27.75 10.57 27.75 11.25 C28.9875 11.559375 28.9875 11.559375 30.25 11.875 C36.91214409 14.49227089 41.80627333 19.1726591 46.75 24.25 C47.678125 24.95125 48.60625 25.6525 49.5625 26.375 C50.284375 26.99375 51.00625 27.6125 51.75 28.25 C51.75 29.24 51.75 30.23 51.75 31.25 C52.41 31.25 53.07 31.25 53.75 31.25 C53.75 31.91 53.75 32.57 53.75 33.25 C54.41 33.25 55.07 33.25 55.75 33.25 C56.306875 34.301875 56.86375 35.35375 57.4375 36.4375 C58.91129733 39.05061583 60.08656372 40.57014597 62.3125 42.6875 C64.98525873 45.49732328 65.86681935 47.64606344 66.9765625 51.28515625 C67.6775318 53.35029175 67.6775318 53.35029175 69.26171875 55.13671875 C71.10179471 57.74953003 71.45114006 59.85736653 71.9375 63 C72.09605469 63.98484375 72.25460937 64.9696875 72.41796875 65.984375 C72.52753906 66.73203125 72.63710938 67.4796875 72.75 68.25 C70.30200821 65.27044428 68.95859217 62.48063808 67.625 58.875 C58.70468945 36.94812886 41.15032607 18.12738609 19.31933594 8.77807617 C6.82216993 3.61091633 -5.56280158 1.70170372 -19.0625 1.8125 C-20.37621582 1.82079834 -21.68993164 1.82909668 -23.04345703 1.83764648 C-47.67606315 2.26517967 -68.09302866 11.44177083 -86.83984375 27.234375 C-88.93023954 28.98258282 -91.05302248 30.63922298 -93.25 32.25 C-91.88029745 29.29987143 -90.42390875 26.6847778 -88.25 24.25 C-87.26 24.25 -86.27 24.25 -85.25 24.25 C-84.87875 22.7959375 -84.87875 22.7959375 -84.5 21.3125 C-84.0875 20.301875 -83.675 19.29125 -83.25 18.25 C-81.4609375 17.71875 -81.4609375 17.71875 -79.25 17.25 C-77.68660375 16.43628693 -76.14499083 15.57966853 -74.625 14.6875 C-70.46813031 12.25 -70.46813031 12.25 -68.25 12.25 C-68.25 11.59 -68.25 10.93 -68.25 10.25 C-67.693125 10.00765625 -67.13625 9.7653125 -66.5625 9.515625 C-65.799375 9.18046875 -65.03625 8.8453125 -64.25 8.5 C-63.43015625 8.14035156 -62.6103125 7.78070313 -61.765625 7.41015625 C-59.44812069 6.34136932 -57.23713383 5.1628004 -55 3.9375 C-52.2566861 2.52743666 -51.44024082 2.2341466 -48.25 2.5 C-47.59 2.7475 -46.93 2.995 -46.25 3.25 C-46.25 2.59 -46.25 1.93 -46.25 1.25 C-45.1775 1.12625 -44.105 1.0025 -43 0.875 C-39.50727369 0.45219629 -36.08137071 -0.15921814 -32.625 -0.8125 C-21.40212178 -2.63656581 -11.15033986 -1.7800344 0 0 Z " fill="#AC2699" transform="translate(231.25,399.75)"/>
<path d="M0 0 C7.13281783 6.10194343 12.41490671 12.83969473 17 21 C17.51949219 21.91652344 18.03898437 22.83304687 18.57421875 23.77734375 C22.10440264 30.36379643 22.10440264 30.36379643 21.625 33.28515625 C21.41875 33.85105469 21.2125 34.41695313 21 35 C19.99539469 32.87717331 18.99644398 30.75166979 18 28.625 C17.443125 27.44164062 16.88625 26.25828125 16.3125 25.0390625 C15 22 15 22 15 20 C14.34 20 13.68 20 13 20 C12.443125 18.948125 11.88625 17.89625 11.3125 16.8125 C9.31058393 13.30914687 6.97095526 10.75356829 4 8 C3.195625 7.175 2.39125 6.35 1.5625 5.5 C-2.26583877 1.76503535 -6.03317948 -1.84771111 -11 -4 C-11.598125 -4.309375 -12.19625 -4.61875 -12.8125 -4.9375 C-22.48743127 -9.63675233 -30.98552169 -11.33338095 -41.75 -11.1875 C-43.12865234 -11.1865332 -43.12865234 -11.1865332 -44.53515625 -11.18554688 C-50.88858968 -11.1441714 -56.10746495 -10.50432739 -62 -8 C-64.55462867 -6.91428281 -66.82586159 -6.03243494 -69.55859375 -5.5234375 C-78.75421204 -3.55189694 -89.40857298 7.04818395 -94.8046875 14.48828125 C-95.89777279 16.30901207 -96.953893 18.15187763 -98 20 C-98.66 20 -99.32 20 -100 20 C-100.66 22.64 -101.32 25.28 -102 28 C-102.66 28 -103.32 28 -104 28 C-104.04898438 28.65226562 -104.09796875 29.30453125 -104.1484375 29.9765625 C-104.22320312 30.85054688 -104.29796875 31.72453125 -104.375 32.625 C-104.44460937 33.48351562 -104.51421875 34.34203125 -104.5859375 35.2265625 C-105 38 -105 38 -106 40.78125 C-107.26131991 44.84112345 -107.45307879 48.6486036 -107.625 52.875 C-107.66367188 53.65875 -107.70234375 54.4425 -107.7421875 55.25 C-107.83566622 57.16631367 -107.91888495 59.08312319 -108 61 C-108.33 61 -108.66 61 -109 61 C-109.96983909 39.22487438 -106.6096523 23.51072945 -91.75 6.75 C-86.78754238 1.38324453 -81.44558238 -2.5752105 -75 -6 C-74.11570313 -6.47050781 -73.23140625 -6.94101562 -72.3203125 -7.42578125 C-48.45860304 -19.14914286 -21.16025295 -15.57919893 0 0 Z " fill="#B51A80" transform="translate(253,443)"/>
<path d="M0 0 C10.23 0 20.46 0 31 0 C31.0451322 18.05426906 31.08198063 36.10849005 31.10362434 54.16279984 C31.11394062 62.54556547 31.12800767 70.9282936 31.15087891 79.31103516 C31.17080202 86.61671211 31.18371388 93.92236189 31.18817699 101.22806525 C31.1907862 105.09702654 31.19692627 108.9659101 31.21146011 112.8348465 C31.225027 116.47584952 31.22922446 120.11674273 31.22621536 123.75776863 C31.22702859 125.73225936 31.23779492 127.70673812 31.24884033 129.68119812 C31.246091 130.85626419 31.24334167 132.03133026 31.24050903 133.24200439 C31.24235262 134.26335102 31.24419621 135.28469765 31.24609566 136.33699417 C31 139 31 139 29 143 C29 96.47 29 49.94 29 2 C20.09 2 11.18 2 2 2 C2 6.29 2 10.58 2 15 C1.34 14.34 0.68 13.68 0 13 C0 8.71 0 4.42 0 0 Z " fill="#020405" transform="translate(1430,451)"/>
<path d="M0 0 C0.99 0 1.98 0 3 0 C3.29132813 0.94359375 3.58265625 1.8871875 3.8828125 2.859375 C11.34686445 26.47955763 24.74654103 46.21979592 47 58 C56.25741281 62.5679941 65.8328429 65.23124551 76 67 C76.88945312 67.18433594 77.77890625 67.36867188 78.6953125 67.55859375 C98.73350128 70.23508942 118.34250912 67.46299635 137 60 C138.01964844 59.60039063 139.03929687 59.20078125 140.08984375 58.7890625 C142.4002195 57.87528135 144.70321102 56.94729315 147 56 C147 56.99 147 57.98 147 59 C145.10435574 59.79211929 143.20847629 60.58367576 141.3125 61.375 C140.25675781 61.81585937 139.20101562 62.25671875 138.11328125 62.7109375 C130.05455703 66.047674 122.52161303 69.14946572 113.75 69.7890625 C111.97372383 69.82047409 111.97372383 69.82047409 111 71 C108.80179062 71.07266808 106.62020129 70.99651547 104.421875 70.9375 C101.98096226 70.92489872 101.98096226 70.92489872 99.57421875 71.52734375 C96.58649789 72.07592376 94.07978899 71.87704364 91.0625 71.5625 C87.01282168 71.14969408 83.07002083 70.97754471 79 71 C74.23482755 70.55878033 70.30728083 69.4451727 65.91015625 67.69140625 C63.32315242 66.75500609 60.71412851 66.41301956 58 66 C55.98910922 65.36694179 53.98536627 64.70905938 52 64 C52 63.34 52 62.68 52 62 C49.36 61.34 46.72 60.68 44 60 C44 59.34 44 58.68 44 58 C42.68 58 41.36 58 40 58 C38.31002677 56.35697047 36.64783606 54.68528688 35 53 C32.96097346 51.6877941 30.89158309 50.48119983 28.76953125 49.30859375 C26.66385345 47.7514148 26.11928003 46.33705671 25 44 C23.39719449 42.36748467 23.39719449 42.36748467 21.5625 40.9375 C16.84246078 37.09418512 13.74849739 33.49699477 11 28 C11.33 27.34 11.66 26.68 12 26 C11.34 26 10.68 26 10 26 C7.15426906 21.3519728 5.37864698 17.31763834 4 12 C3.07864292 9.52385285 2.11065117 7.20900777 0.875 4.875 C0 3 0 3 0 0 Z " fill="#FD8112" transform="translate(116,523)"/>
<path d="M0 0 C21.80575825 9.52162402 37.81276838 25.67939395 46.67578125 47.7734375 C50.23693808 58.33142088 51.43912784 68.74885572 51.29296875 79.8359375 C51.28872391 81.0813028 51.28447906 82.32666809 51.28010559 83.60977173 C51.26350442 87.53174795 51.22588765 91.45318286 51.1875 95.375 C51.17070686 98.05727856 51.15853795 100.73957149 51.14648438 103.421875 C51.11366199 109.9480969 51.063652 116.47400976 51 123 C50.67 123 50.34 123 50 123 C49.9845388 122.1500798 49.9845388 122.1500798 49.96876526 121.2829895 C49.85994112 115.34481007 49.74541289 109.40675944 49.62768555 103.46875 C49.58457808 101.2575146 49.54288784 99.04625107 49.50268555 96.83496094 C49.44439205 93.64249217 49.38087307 90.45016188 49.31640625 87.2578125 C49.29969376 86.28135773 49.28298126 85.30490295 49.26576233 84.29885864 C49.00481058 71.99756287 48.39206666 59.23347221 43 48 C42.649375 47.113125 42.29875 46.22625 41.9375 45.3125 C41.05421474 43.0327951 41.05421474 43.0327951 40 41.0625 C39 39 39 39 38.0625 35.9375 C37.00486033 33.01343738 36.21692656 32.03218268 34 30 C33.71769531 29.38253906 33.43539062 28.76507813 33.14453125 28.12890625 C31.8141393 25.65428641 30.34538932 24.34905081 28.1875 22.5625 C25.78993045 20.54802505 23.63959498 18.61256461 21.5 16.3125 C18.32759875 13.37802885 14.92244027 11.74222533 11 10 C11 9.34 11 8.68 11 8 C9.68 7.67 8.36 7.34 7 7 C7 6.34 7 5.68 7 5 C5.02 5 3.04 5 1 5 C1 4.34 1 3.68 1 3 C0.030625 2.731875 -0.93875 2.46375 -1.9375 2.1875 C-4.79806057 1.38170829 -7.57804566 0.44027449 -10.375 -0.5625 C-14.30150023 -1.90276337 -18.02328912 -2.4832066 -22.15234375 -2.7890625 C-24 -3 -24 -3 -26 -4 C-26.99 -3.67 -27.98 -3.34 -29 -3 C-31.73812607 -3.45548177 -34.3201176 -4.25314753 -37 -5 C-28.2335502 -10.85166044 -9.14764511 -3.54490024 0 0 Z " fill="#9A1B9C" transform="translate(313,346)"/>
<path d="M0 0 C0.33 0 0.66 0 1 0 C1.07001616 12.54527557 1.12307022 25.09050341 1.15543652 37.63593578 C1.1709835 43.46349762 1.19201723 49.29092418 1.22631836 55.1184082 C1.25930819 60.75947175 1.27693506 66.40040653 1.28463173 72.04155922 C1.29010509 74.17615087 1.300789 76.31073679 1.31719017 78.44527245 C1.52800498 107.06289146 -1.43424765 134.24836208 -22 156 C-32.82498304 166.2870523 -32.82498304 166.2870523 -38 167 C-37.34 166.01 -36.68 165.02 -36 164 C-35.34 164 -34.68 164 -34 164 C-33.67 163.01 -33.34 162.02 -33 161 C-32.01 161 -31.02 161 -30 161 C-29.67 160.01 -29.34 159.02 -29 158 C-28.071875 157.401875 -27.14375 156.80375 -26.1875 156.1875 C-22.72886696 153.81392831 -21.1924954 151.52365331 -19 148 C-18.34 147.67 -17.68 147.34 -17 147 C-15.94773272 145.02699884 -14.95211112 143.02323613 -14 141 C-13.62875 140.29875 -13.2575 139.5975 -12.875 138.875 C-11.93166991 137.0146223 -11.93166991 137.0146223 -11.5 134.9375 C-11 133 -11 133 -9 130 C-7.29144978 126.99992729 -7.29144978 126.99992729 -6 124 C-6.495 123.01 -6.495 123.01 -7 122 C-6.34 122 -5.68 122 -5 122 C-5.020625 121.195625 -5.04125 120.39125 -5.0625 119.5625 C-5 117 -5 117 -4 116 C-3.79160985 114.35892758 -3.63248275 112.71143707 -3.5 111.0625 C-3.10977702 106.21955403 -3.10977702 106.21955403 -2 104 C-1.92725414 102.39995484 -1.91630681 100.79687028 -1.9375 99.1953125 C-1.94910156 97.72964844 -1.94910156 97.72964844 -1.9609375 96.234375 C-1.98648851 94.20051461 -2.01251097 92.16666007 -2.0390625 90.1328125 C-2.05066406 88.6478125 -2.05066406 88.6478125 -2.0625 87.1328125 C-2.07410156 86.24480957 -2.08570313 85.35680664 -2.09765625 84.44189453 C-2.01349167 81.4755138 -1.79057626 78.58601555 -1.51586914 75.63330078 C-0.85366 68.00729066 -0.77144911 60.38317751 -0.68359375 52.734375 C-0.66296681 51.20452386 -0.6419691 49.67467767 -0.62062073 48.14483643 C-0.56599153 44.16001457 -0.51632696 40.17514648 -0.46777344 36.19024658 C-0.41712033 32.10725903 -0.36166533 28.02433682 -0.30664062 23.94140625 C-0.19978507 15.9609931 -0.09818568 7.98052451 0 0 Z " fill="#D80B51" transform="translate(364,471)"/>
<path d="M0 0 C0.33 0 0.66 0 1 0 C1.33 27.72 1.66 55.44 2 84 C11.24 84 20.48 84 30 84 C30 59.91 30 35.82 30 11 C30.66 11.33 31.32 11.66 32 12 C32 36.42 32 60.84 32 86 C21.44 86 10.88 86 0 86 C0 57.62 0 29.24 0 0 Z " fill="#010203" transform="translate(589,501)"/>
<path d="M0 0 C0.33 0 0.66 0 1 0 C1 12.87 1 25.74 1 39 C11.23 39 21.46 39 32 39 C32 47.58 32 56.16 32 65 C21.77 65 11.54 65 1 65 C1 85.13 1 105.26 1 126 C0.67 126 0.34 126 0 126 C0 105.21 0 84.42 0 63 C9.9 63 19.8 63 30 63 C29.67 55.74 29.34 48.48 29 41 C25.98552734 41.01740234 25.98552734 41.01740234 22.91015625 41.03515625 C20.97078576 41.0421074 19.03141497 41.04902396 17.09204102 41.05493164 C15.74079614 41.05997057 14.38955674 41.06680177 13.03833008 41.07543945 C11.09979566 41.08752419 9.161222 41.09269828 7.22265625 41.09765625 C5.47094116 41.10551147 5.47094116 41.10551147 3.68383789 41.11352539 C1 41 1 41 0 40 C-0.08868299 37.04294679 -0.11520296 34.10934944 -0.09765625 31.15234375 C-0.0962413 30.2659169 -0.09482635 29.37949005 -0.09336853 28.46620178 C-0.08775215 25.62326746 -0.07519691 22.78041069 -0.0625 19.9375 C-0.05748711 18.01497509 -0.05292384 16.09244896 -0.04882812 14.16992188 C-0.03777741 9.44658451 -0.02050183 4.72330542 0 0 Z " fill="#010202" transform="translate(803,414)"/>
<path d="M0 0 C12.39582309 -0.0305062 24.79164481 -0.05094241 37.1875 -0.0625 C38.09915924 -0.06335602 39.01081848 -0.06421204 39.95010376 -0.06509399 C68.31248344 -0.08863645 96.64959668 0.09046488 125 1 C125 1.33 125 1.66 125 2 C118.10861407 2.67350369 111.33761982 3.05463052 104.4140625 2.96484375 C101.54333781 3.00665042 98.82301993 3.50597151 96 4 C95.01 3.67 94.02 3.34 93 3 C91.15479401 2.92136179 89.30677911 2.90299023 87.45996094 2.91821289 C85.74705368 2.92788841 85.74705368 2.92788841 83.99954224 2.9377594 C82.75703705 2.94927536 81.51453186 2.96079132 80.234375 2.97265625 C78.25964839 2.98319365 76.28492153 2.99371211 74.3101902 3.00332546 C72.21958121 3.01385709 70.12898857 3.02621822 68.03839111 3.03881836 C45.30318154 3.16976036 22.65503406 3.23401332 0 1 C0 0.67 0 0.34 0 0 Z " fill="#8A2EB3" transform="translate(155,338)"/>
<path d="M0 0 C0 0.66 0 1.32 0 2 C0.598125 2.28875 1.19625 2.5775 1.8125 2.875 C4 4 4 4 7 6 C7 6.66 7 7.32 7 8 C7.66 8.33 8.32 8.66 9 9 C11.52007415 14.04014829 13.95128823 19.35909827 12.45703125 25.078125 C11.71809817 27.10362684 10.91384981 29.04750151 10 31 C9.731875 31.66257812 9.46375 32.32515625 9.1875 33.0078125 C6.1748566 38.0619182 -0.02060501 41.39911224 -5.5 43.0625 C-11.2075138 42.96058011 -16.59451004 41.80182999 -22 40 C-23.75390625 38.0390625 -23.75390625 38.0390625 -25.5625 35.625 C-26.16191406 34.83351563 -26.76132812 34.04203125 -27.37890625 33.2265625 C-30.62782336 28.76419443 -31.25137984 26.59681698 -31.1875 21.0625 C-31.18105469 19.83660156 -31.17460937 18.61070312 -31.16796875 17.34765625 C-31.03458647 14.68931644 -30.78933154 12.51954626 -30 10 C-29.34 10 -28.68 10 -28 10 C-27.92136719 9.40445312 -27.84273438 8.80890625 -27.76171875 8.1953125 C-26.28534335 3.9403229 -21.74671355 2.14008261 -18 0 C-12.02398259 -2.86350834 -6.14271607 -2.04757202 0 0 Z M-26.375 8.4375 C-29.66182837 13.62057551 -30.9071754 18.89092009 -30 25 C-27.74456739 32.18497095 -23.01056583 36.73762953 -16.5625 40.375 C-9.42939417 42.11478191 -4.63709901 41.00866746 1.7265625 37.5625 C6.24510938 34.4569695 8.94769013 30.41630082 10 25 C10.74670139 18.48778459 9.87744041 13.36529546 6 8 C1.1711728 2.95168065 -2.60696675 0.86071558 -9.6875 0.625 C-17.18846476 0.68849063 -21.25123425 3.17889831 -26.375 8.4375 Z " fill="#AB188D" transform="translate(312,385)"/>
<path d="M0 0 C0.99 0.33 1.98 0.66 3 1 C3.66666667 2.66666667 4.33333333 4.33333333 5 6 C10.73317327 13.75664619 19.22273612 22.1516553 28.75 24.75 C29.4925 24.8325 30.235 24.915 31 25 C31.57492188 25.14953125 32.14984375 25.2990625 32.7421875 25.453125 C35.60029595 26.1454004 38.46663214 26.56611762 41.375 27 C44.63595229 27.488761 47.88962848 27.98048225 51.13671875 28.5546875 C62.61873673 30.34043109 74.51206273 27.89772316 85.203125 23.6640625 C87.43103859 22.84070313 89.65629015 22.36620466 92 22 C89.59681852 24.79310165 87.32797623 25.84756392 83.875 27.0625 C82.54082031 27.54396484 82.54082031 27.54396484 81.1796875 28.03515625 C61.89263612 33.88761533 38.96849233 33.41120699 20.875 24.0625 C12.5256183 19.03050657 3.33914511 11.28133887 0.23828125 1.62890625 C0.15964844 1.09136719 0.08101562 0.55382812 0 0 Z " fill="#F4632B" transform="translate(154,532)"/>
<path d="M0 0 C0.99 0.495 0.99 0.495 2 1 C-9.01712475 13.00942929 -31.20377636 16.3096983 -46.87832642 17.15527344 C-54.12761127 17.36152589 -61.37444401 17.27582657 -68.625 17.1875 C-70.80728231 17.17240837 -72.98957485 17.15872798 -75.171875 17.14648438 C-80.44814504 17.11387439 -85.72402252 17.06403896 -91 17 C-91 16.34 -91 15.68 -91 15 C-89.35801636 15.00785522 -89.35801636 15.00785522 -87.68286133 15.01586914 C-83.61076682 15.03400733 -79.53867587 15.04546423 -75.46655273 15.05493164 C-73.70612995 15.0599517 -71.94571132 15.0667691 -70.18530273 15.07543945 C-67.65086846 15.08760703 -65.11648946 15.09325166 -62.58203125 15.09765625 C-61.40674614 15.10539818 -61.40674614 15.10539818 -60.2077179 15.11329651 C-56.32684058 15.11369242 -52.78219608 14.84615623 -49 14 C-47.80375 14.020625 -46.6075 14.04125 -45.375 14.0625 C-41.86728634 14.30094602 -41.86728634 14.30094602 -39 12 C-36.94140625 11.91015625 -36.94140625 11.91015625 -34.5625 12.0625 C-26.05059903 12.2497119 -16.85112093 9.98530519 -9.5625 5.5 C-7 4 -7 4 -3.75 2.9375 C-0.86381294 2.31285945 -0.86381294 2.31285945 0 0 Z " fill="#FD7E22" transform="translate(325,636)"/>
<path d="M0 0 C0.66 0.33 1.32 0.66 2 1 C1.44865792 6.23774977 0.49082599 10.93119162 -1 16 C-1 16.99 -1 17.98 -1 19 C-1.66 19 -2.32 19 -3 19 C-3.0928125 20.175625 -3.0928125 20.175625 -3.1875 21.375 C-4.11794846 25.52623159 -5.76610804 28.79386982 -7.74609375 32.53515625 C-9.04196162 34.96956212 -9.04196162 34.96956212 -9.94921875 37.52734375 C-11.10424651 40.2453087 -12.52429738 42.20480549 -14.375 44.5 C-14.99503906 45.27214844 -15.61507813 46.04429687 -16.25390625 46.83984375 C-17.11822266 47.90912109 -17.11822266 47.90912109 -18 49 C-18.763125 50.010625 -19.52625 51.02125 -20.3125 52.0625 C-20.869375 52.701875 -21.42625 53.34125 -22 54 C-22.66 54 -23.32 54 -24 54 C-24.04125 54.5775 -24.0825 55.155 -24.125 55.75 C-25.43840627 59.12733042 -27.98649192 60.08758141 -31 62 C-32.2375 63.2684375 -32.2375 63.2684375 -33.5 64.5625 C-36.17720725 67.17277707 -38.53811233 68.61524493 -42 70 C-42.66 69.67 -43.32 69.34 -44 69 C-43.23816406 68.45472656 -42.47632813 67.90945313 -41.69140625 67.34765625 C-18.30530984 50.26792292 -6.67690878 27.6748509 0 0 Z " fill="#DE275D" transform="translate(305,510)"/>
<path d="M0 0 C0.33 0 0.66 0 1 0 C1.01981934 0.98693848 1.03963867 1.97387695 1.06005859 2.99072266 C1.13727633 6.72222522 1.2257926 10.45339521 1.31738281 14.18457031 C1.3552009 15.78639059 1.39012698 17.38828229 1.421875 18.99023438 C1.60569693 28.15835311 2.06854374 37.03628418 3.58447266 46.09521484 C4 49 4 49 3.93505859 51.69775391 C3.80401668 54.2812952 3.80401668 54.2812952 6 57 C6 58.66666667 6 60.33333333 6 62 C6.81653117 64.85785911 7.73355483 67.46710967 9.0625 70.125 C10 72 10 72 10.4375 74.0625 C10.86080945 76.10176883 10.86080945 76.10176883 12.5 77.5 C14 79 14 79 14.4375 80.9375 C15.21413629 83.78516638 16.87257089 84.99771378 19 87 C22 90.64285714 22 90.64285714 22 93 C22.66 93 23.32 93 24 93 C23.67 93.99 23.34 94.98 23 96 C7.30756903 80.88877018 0.30008921 59.3379919 -0.15869141 37.83837891 C-0.21970664 32.1001017 -0.175385 26.36318584 -0.125 20.625 C-0.11494474 18.61719199 -0.10582342 16.60937908 -0.09765625 14.6015625 C-0.07585688 9.73425156 -0.04146897 4.86718147 0 0 Z " fill="#EC5B26" transform="translate(58,530)"/>
<path d="M0 0 C0.66 0.33 1.32 0.66 2 1 C2 2.32 2 3.64 2 5 C1.401875 5.556875 0.80375 6.11375 0.1875 6.6875 C-3.79644129 10.89909508 -4.93251622 16.52850778 -5.5625 22.1875 C-5.97319547 25.76641768 -6.84617136 28.61062837 -8 32 C-8.35543427 34.33006911 -8.6913753 36.66327016 -9 39 C-9.33 39.99 -9.66 40.98 -10 42 C-10.15070797 44.13661258 -10.2485966 46.27712124 -10.31640625 48.41796875 C-10.35830078 49.67158203 -10.40019531 50.92519531 -10.44335938 52.21679688 C-10.48267578 53.52712891 -10.52199219 54.83746094 -10.5625 56.1875 C-10.60570992 57.52279978 -10.649325 58.85808652 -10.69335938 60.19335938 C-10.79956502 63.46213297 -10.90160997 66.73098333 -11 70 C-11.33 70 -11.66 70 -12 70 C-13.35102912 44.31976674 -12.59937555 22.86072264 0 0 Z " fill="#6514B4" transform="translate(70,379)"/>
<path d="M0 0 C1.21236328 0.01353516 1.21236328 0.01353516 2.44921875 0.02734375 C3.37154297 0.04474609 3.37154297 0.04474609 4.3125 0.0625 C4.8075 1.0525 4.8075 1.0525 5.3125 2.0625 C4.11496094 2.22105469 2.91742188 2.37960937 1.68359375 2.54296875 C-21.71462559 5.81688317 -39.63875609 14.04519887 -57.6875 29.0625 C-59.35153791 30.39911266 -61.01720483 31.73371499 -62.6875 33.0625 C-61.31779745 30.11237143 -59.86140875 27.4972778 -57.6875 25.0625 C-56.6975 25.0625 -55.7075 25.0625 -54.6875 25.0625 C-54.31625 23.6084375 -54.31625 23.6084375 -53.9375 22.125 C-53.525 21.114375 -53.1125 20.10375 -52.6875 19.0625 C-50.8984375 18.53125 -50.8984375 18.53125 -48.6875 18.0625 C-47.12410375 17.24878693 -45.58249083 16.39216853 -44.0625 15.5 C-39.90563031 13.0625 -39.90563031 13.0625 -37.6875 13.0625 C-37.6875 12.4025 -37.6875 11.7425 -37.6875 11.0625 C-37.130625 10.82015625 -36.57375 10.5778125 -36 10.328125 C-35.236875 9.99296875 -34.47375 9.6578125 -33.6875 9.3125 C-32.86765625 8.95285156 -32.0478125 8.59320313 -31.203125 8.22265625 C-28.88562069 7.15386932 -26.67463383 5.9753004 -24.4375 4.75 C-21.6941861 3.33993666 -20.87774082 3.0466466 -17.6875 3.3125 C-17.0275 3.56 -16.3675 3.8075 -15.6875 4.0625 C-15.6875 3.4025 -15.6875 2.7425 -15.6875 2.0625 C-13.70182292 1.83463542 -11.71614583 1.60677083 -9.73046875 1.37890625 C-0.75638089 -0.01096204 -0.75638089 -0.01096204 0 0 Z " fill="#A51B92" transform="translate(200.6875,398.9375)"/>
<path d="M0 0 C0.66 0 1.32 0 2 0 C5.80666614 3.89784377 7.21611061 7.84204544 8.6875 12.9375 C8.89955078 13.62779297 9.11160156 14.31808594 9.33007812 15.02929688 C11.11889479 20.98261416 12.12739891 26.67049093 12.11352539 32.91357422 C12.11344986 34.05430389 12.11337433 35.19503357 12.11329651 36.37033081 C12.10813522 37.58616852 12.10297394 38.80200623 12.09765625 40.0546875 C12.0962413 41.31137238 12.09482635 42.56805725 12.09336853 43.86282349 C12.08873074 47.1869194 12.0797618 50.51094542 12.06866455 53.83502197 C12.05839401 57.23375854 12.05385887 60.63250235 12.04882812 64.03125 C12.03781699 70.68751917 12.02109222 77.34375555 12 84 C11.67 84 11.34 84 11 84 C10.98969254 83.43338654 10.97938507 82.86677307 10.96876526 82.2829895 C10.85994112 76.34481007 10.74541289 70.40675944 10.62768555 64.46875 C10.58457808 62.2575146 10.54288784 60.04625107 10.50268555 57.83496094 C10.44439205 54.64249217 10.38087307 51.45016188 10.31640625 48.2578125 C10.29969376 47.28135773 10.28298126 46.30490295 10.26576233 45.29885864 C10.00481058 32.99756287 9.39206666 20.23347221 4 9 C3.4740625 7.6696875 3.4740625 7.6696875 2.9375 6.3125 C2.0583778 4.14399857 1.07662364 2.07634559 0 0 Z " fill="#B41581" transform="translate(352,385)"/>
<path d="M0 0 C0.99 0 1.98 0 3 0 C3.29132813 0.94359375 3.58265625 1.8871875 3.8828125 2.859375 C9.77951587 21.51964309 18.88750095 35.52897818 33 49 C33.66 49.66 34.32 50.32 35 51 C34.01 51.495 34.01 51.495 33 52 C29.05778624 49.60039163 27.01802047 48.05923658 25 44 C23.39719449 42.36748467 23.39719449 42.36748467 21.5625 40.9375 C16.84246078 37.09418512 13.74849739 33.49699477 11 28 C11.33 27.34 11.66 26.68 12 26 C11.34 26 10.68 26 10 26 C7.15426906 21.3519728 5.37864698 17.31763834 4 12 C3.07864292 9.52385285 2.11065117 7.20900777 0.875 4.875 C0 3 0 3 0 0 Z " fill="#FC8428" transform="translate(116,523)"/>
<path d="M0 0 C-1.4810143 3.3840793 -3.42878168 5.74191253 -5.9375 8.4375 C-8.1603891 10.82658642 -9.97758983 12.96168237 -11.62890625 15.78515625 C-12.08136719 16.51605469 -12.53382813 17.24695313 -13 18 C-13.66 18 -14.32 18 -15 18 C-15.66 20.64 -16.32 23.28 -17 26 C-17.66 26 -18.32 26 -19 26 C-19.04898438 26.65226562 -19.09796875 27.30453125 -19.1484375 27.9765625 C-19.22320312 28.85054688 -19.29796875 29.72453125 -19.375 30.625 C-19.44460937 31.48351562 -19.51421875 32.34203125 -19.5859375 33.2265625 C-20 36 -20 36 -21 38.78125 C-22.26131991 42.84112345 -22.45307879 46.6486036 -22.625 50.875 C-22.66367188 51.65875 -22.70234375 52.4425 -22.7421875 53.25 C-22.83566622 55.16631367 -22.91888495 57.08312319 -23 59 C-23.33 59 -23.66 59 -24 59 C-25.04863375 35.45575238 -20.18929942 19.59624668 -4.13671875 2.01953125 C-2 0 -2 0 0 0 Z " fill="#BC1F7A" transform="translate(168,445)"/>
<path d="M0 0 C3.73159577 1.36668858 6.84736306 3.10999885 10.1875 5.25 C20.96766688 11.60923637 33.05652113 15.28893881 45.49609375 16.48046875 C48.28818865 17.05979577 49.25097479 17.80037847 51 20 C44.09812143 20.1683385 38.28456735 19.23380143 31.91015625 16.69140625 C29.32315242 15.75500609 26.71412851 15.41301956 24 15 C21.98910922 14.36694179 19.98536627 13.70905938 18 13 C18 12.34 18 11.68 18 11 C15.36 10.34 12.72 9.68 10 9 C10 8.34 10 7.68 10 7 C8.68 7 7.36 7 6 7 C3.53171804 4.81872757 1.48126856 2.96253712 0 0 Z " fill="#FC971A" transform="translate(150,574)"/>
<path d="M0 0 C1 3 1 3 -0.1171875 5.75 C-6.36539189 17.30223568 -16.08897706 33.41727605 -29.35546875 37.7734375 C-29.89816406 37.84820313 -30.44085938 37.92296875 -31 38 C-30.34 37.01 -29.68 36.02 -29 35 C-28.34 35 -27.68 35 -27 35 C-26.67 34.01 -26.34 33.02 -26 32 C-25.01 32 -24.02 32 -23 32 C-22.67 31.01 -22.34 30.02 -22 29 C-21.071875 28.401875 -20.14375 27.80375 -19.1875 27.1875 C-15.72886696 24.81392831 -14.1924954 22.52365331 -12 19 C-11.34 18.67 -10.68 18.34 -10 18 C-8.94773272 16.02699884 -7.95211112 14.02323613 -7 12 C-6.62875 11.29875 -6.2575 10.5975 -5.875 9.875 C-4.97022473 7.93619585 -4.44740748 6.08790157 -4 4 C-3.34 4 -2.68 4 -2 4 C-1.34 2.68 -0.68 1.36 0 0 Z " fill="#F3233C" transform="translate(357,600)"/>
<path d="M0 0 C15.76758535 4.92737042 25.06414484 21.17792474 32.25 34.80859375 C33.11235925 37.32829968 32.89920708 38.53280058 32 41 C30.99539469 38.87717331 29.99644398 36.75166979 29 34.625 C28.443125 33.44164062 27.88625 32.25828125 27.3125 31.0390625 C26 28 26 28 26 26 C25.34 26 24.68 26 24 26 C23.443125 24.948125 22.88625 23.89625 22.3125 22.8125 C20.31058393 19.30914687 17.97095526 16.75356829 15 14 C14.195625 13.175 13.39125 12.35 12.5625 11.5 C9.82885463 8.83302891 6.93809595 6.43799451 4 4 C2.64900897 2.68456137 1.30794331 1.35824882 0 0 Z " fill="#BF1D7A" transform="translate(242,437)"/>
<path d="M0 0 C2.4375 0.75 2.4375 0.75 5 2 C5.8125 4.125 5.8125 4.125 6 6 C6.66 6 7.32 6 8 6 C8 6.66 8 7.32 8 8 C8.66 8 9.32 8 10 8 C10.556875 9.051875 11.11375 10.10375 11.6875 11.1875 C13.16129733 13.80061583 14.33656372 15.32014597 16.5625 17.4375 C19.23525873 20.24732328 20.11681935 22.39606344 21.2265625 26.03515625 C21.9275318 28.10029175 21.9275318 28.10029175 23.51171875 29.88671875 C25.35179471 32.49953003 25.70114006 34.60736653 26.1875 37.75 C26.42533203 39.22726562 26.42533203 39.22726562 26.66796875 40.734375 C26.77753906 41.48203125 26.88710938 42.2296875 27 43 C24.55200821 40.02044428 23.20859217 37.23063808 21.875 33.625 C17.18851383 22.125622 9.95034781 12.53944184 1.87109375 3.23046875 C0 1 0 1 0 0 Z " fill="#BB2081" transform="translate(277,425)"/>
<path d="M0 0 C0.66 0.33 1.32 0.66 2 1 C0.36862283 4.61665098 -1.85121138 7.61568511 -4.1875 10.8125 C-10.94090523 20.3258023 -15.66710949 30.82501417 -19 42 C-19.94196188 39.00041925 -20.02013099 37.08752625 -19.1875 34.0625 C-18.99800781 33.37285156 -18.80851562 32.68320312 -18.61328125 31.97265625 C-17.87198511 29.58823237 -17.00073515 27.28739462 -16 25 C-15.34 25 -14.68 25 -14 25 C-13.34 22.36 -12.68 19.72 -12 17 C-11.34 17 -10.68 17 -10 17 C-10 16.01 -10 15.02 -10 14 C-9.34 14 -8.68 14 -8 14 C-7.690625 13.05125 -7.38125 12.1025 -7.0625 11.125 C-6 8 -6 8 -5 6 C-4.34 6 -3.68 6 -3 6 C-3 5.01 -3 4.02 -3 3 C-1.5 1.3125 -1.5 1.3125 0 0 Z " fill="#B0167D" transform="translate(136,431)"/>
<path d="M0 0 C0.33 0 0.66 0 1 0 C1.01981934 0.8564209 1.03963867 1.7128418 1.06005859 2.59521484 C1.13887508 5.81972342 1.22558633 9.04390321 1.31738281 12.26806641 C1.35530245 13.65470413 1.39021453 15.0414279 1.421875 16.42822266 C1.58999362 23.70460661 1.83202004 30.77429783 3.58447266 37.87353516 C4.05633713 40.28830578 4.06613301 42.54555122 4 45 C0.82358431 41.54737425 0.48290831 38.58762893 0 34 C-0.16999512 33.21625 -0.33999023 32.4325 -0.51513672 31.625 C-1.02969245 28.83924814 -1.12944167 26.26899928 -1.1328125 23.4375 C-1.13410156 22.39335937 -1.13539062 21.34921875 -1.13671875 20.2734375 C-1.13285156 19.19320313 -1.12898438 18.11296875 -1.125 17 C-1.12886719 15.91976563 -1.13273437 14.83953125 -1.13671875 13.7265625 C-1.13542969 12.68242187 -1.13414063 11.63828125 -1.1328125 10.5625 C-1.13168457 9.61503906 -1.13055664 8.66757812 -1.12939453 7.69140625 C-1.00155829 5.03241247 -0.59206413 2.59167693 0 0 Z " fill="#D83956" transform="translate(114,480)"/>
<path d="M0 0 C0.66 0.33 1.32 0.66 2 1 C-11.96942746 8.97802516 -25.32255442 9.42202496 -41 9 C-41 8.67 -41 8.34 -41 8 C-40.32195312 7.93941406 -39.64390625 7.87882813 -38.9453125 7.81640625 C-36.98937519 7.64031771 -35.03365914 7.46176084 -33.078125 7.28125 C-31.17254082 7.10713571 -29.26636493 6.9392255 -27.359375 6.78125 C-18.72956119 6.02139218 -11.04870129 4.19172637 -3 1 C-2.01 0.67 -1.02 0.34 0 0 Z " fill="#F55820" transform="translate(244,554)"/>
<path d="M0 0 C0.81855469 -0.00386719 1.63710937 -0.00773438 2.48046875 -0.01171875 C8.498261 -0.001739 8.498261 -0.001739 9.625 1.125 C11.18448542 1.28186249 12.75042668 1.37576639 14.31640625 1.44140625 C15.73276367 1.50424805 15.73276367 1.50424805 17.17773438 1.56835938 C18.66756836 1.62733398 18.66756836 1.62733398 20.1875 1.6875 C21.68313477 1.75227539 21.68313477 1.75227539 23.20898438 1.81835938 C25.6808415 1.92480298 28.1528031 2.02681928 30.625 2.125 C30.625 2.455 30.625 2.785 30.625 3.125 C14.785 3.125 -1.055 3.125 -17.375 3.125 C-17.045 2.465 -16.715 1.805 -16.375 1.125 C-10.93246413 -0.00350481 -5.54131372 -0.02694318 0 0 Z " fill="#FDC022" transform="translate(224.375,650.875)"/>
<path d="M0 0 C0.33 0.66 0.66 1.32 1 2 C0.34 2 -0.32 2 -1 2 C-1.33 2.99 -1.66 3.98 -2 5 C-2.66 5 -3.32 5 -4 5 C-4.33 5.66 -4.66 6.32 -5 7 C-9.06057275 11.30666807 -13.51774233 15.14058707 -18 19 C-17.67 19.66 -17.34 20.32 -17 21 C-18.1446875 21.6496875 -18.1446875 21.6496875 -19.3125 22.3125 C-21.58093768 23.73686785 -23.2199723 25.03260097 -25 27 C-23.20794157 17.77497196 -13.65739228 9.43659097 -6.421875 4.09765625 C-4.30621886 2.68389232 -2.17898473 1.31357235 0 0 Z " fill="#4B0FBA" transform="translate(96,353)"/>
<path d="M0 0 C0.66 0 1.32 0 2 0 C2.12375 0.94875 2.2475 1.8975 2.375 2.875 C2.71687177 6.08667191 2.71687177 6.08667191 5 8 C5.144375 8.804375 5.28875 9.60875 5.4375 10.4375 C6.07699296 13.35074572 6.91045308 13.99751753 9 16 C9.144375 16.639375 9.28875 17.27875 9.4375 17.9375 C10.21413629 20.78516638 11.87257089 21.99771378 14 24 C17 27.64285714 17 27.64285714 17 30 C17.66 30 18.32 30 19 30 C18.67 30.99 18.34 31.98 18 33 C8.68698171 24.03190832 2.80726036 13.32098329 -1 1 C-0.67 0.67 -0.34 0.34 0 0 Z " fill="#FB951E" transform="translate(63,593)"/>
<path d="M0 0 C3.03125 3.5546875 3.03125 3.5546875 2.75 7.5625 C2 11 2 11 1 14 C0.84929203 16.13661258 0.7514034 18.27712124 0.68359375 20.41796875 C0.64169922 21.67158203 0.59980469 22.92519531 0.55664062 24.21679688 C0.51732422 25.52712891 0.47800781 26.83746094 0.4375 28.1875 C0.39429008 29.52279978 0.350675 30.85808652 0.30664062 32.19335938 C0.20043498 35.46213297 0.09839003 38.73098333 0 42 C-0.33 42 -0.66 42 -1 42 C-2.60666308 11.4607005 -2.60666308 11.4607005 0 0 Z " fill="#7D19AA" transform="translate(59,407)"/>
<path d="M0 0 C0 0.99 0 1.98 0 3 C-1.89564426 3.79211929 -3.79152371 4.58367576 -5.6875 5.375 C-6.74324219 5.81585937 -7.79898438 6.25671875 -8.88671875 6.7109375 C-16.25958569 9.76369295 -22.89118573 12.40544071 -31 12 C-27.58882214 9.72588143 -24.19776921 8.75812963 -20.3125 7.625 C-14.52287878 5.88681842 -9.33667121 3.87359219 -4 1 C-2.67536832 0.63361251 -1.34300045 0.29195662 0 0 Z " fill="#F55430" transform="translate(263,579)"/>
<path d="M0 0 C0 3.59857954 -0.95830515 5.09451118 -3 8 C-3.66 8 -4.32 8 -5 8 C-5.04125 8.5775 -5.0825 9.155 -5.125 9.75 C-6.43840627 13.12733042 -8.98649192 14.08758141 -12 16 C-12.825 16.845625 -13.65 17.69125 -14.5 18.5625 C-17.17720725 21.17277707 -19.53811233 22.61524493 -23 24 C-23.66 23.67 -24.32 23.34 -25 23 C-24.23816406 22.45472656 -23.47632813 21.90945313 -22.69140625 21.34765625 C-14.17356028 15.12675751 -6.33577699 8.53952551 0 0 Z " fill="#EE3033" transform="translate(286,556)"/>
<path d="M0 0 C4.53490815 -0.02493183 9.06977539 -0.04296857 13.60473633 -0.05493164 C15.14380591 -0.05992496 16.68287084 -0.06672194 18.22192383 -0.07543945 C26.20725594 -0.11950003 34.07632637 -0.14483112 42 1 C42 1.33 42 1.66 42 2 C40.62279785 1.99214478 40.62279785 1.99214478 39.21777344 1.98413086 C35.80354177 1.96706402 32.38935559 1.95453768 28.97509766 1.94506836 C27.49885339 1.94004712 26.02261408 1.93322884 24.54638672 1.92456055 C22.42153702 1.91239811 20.29675322 1.90674954 18.171875 1.90234375 C16.2552002 1.89448853 16.2552002 1.89448853 14.29980469 1.88647461 C11.15265312 1.877083 11.15265312 1.877083 8.78613281 2.56469727 C5.68432511 3.3206463 2.9532394 1.96548211 0 1 C0 0.67 0 0.34 0 0 Z " fill="#6619B7" transform="translate(138,339)"/>
<path d="M0 0 C1.1875 1.5 1.1875 1.5 2 4 C1.3154765 6.80712157 0.20733059 9.38070651 -1 12 C-1.26941406 12.66644531 -1.53882813 13.33289063 -1.81640625 14.01953125 C-4.5204243 18.54407631 -10.22308191 22.1576192 -15.21484375 23.671875 C-17.125 23.9375 -17.125 23.9375 -20 24 C-19.01 23.67 -18.02 23.34 -17 23 C-17 22.34 -17 21.68 -17 21 C-15.71086513 20.32845067 -14.41859796 19.66291141 -13.125 19 C-12.40570313 18.62875 -11.68640625 18.2575 -10.9453125 17.875 C-9 17 -9 17 -7 17 C-4.15308185 11.5251574 -1.86425745 5.8795812 0 0 Z " fill="#B6228A" transform="translate(323,404)"/>
<path d="M0 0 C1.07036499 0.14997437 1.07036499 0.14997437 2.16235352 0.30297852 C11.77698372 1.69813721 11.77698372 1.69813721 16.25 3.25 C16.58 4.24 16.91 5.23 17.25 6.25 C16.095 5.940625 14.94 5.63125 13.75 5.3125 C10.79293801 4.56534199 7.90511597 4.0315791 4.875 3.6875 C1.25 3.25 1.25 3.25 -0.75 2.25 C-1.74 2.58 -2.73 2.91 -3.75 3.25 C-6.48812607 2.79451823 -9.0701176 1.99685247 -11.75 1.25 C-7.92355261 -1.39301005 -4.35021965 -0.65175406 0 0 Z " fill="#951FA4" transform="translate(287.75,339.75)"/>
<path d="M0 0 C0.99 0 1.98 0 3 0 C3.30292969 0.96679688 3.60585937 1.93359375 3.91796875 2.9296875 C6.17901587 9.99932516 8.53808476 16.63543893 12.1796875 23.14453125 C12.45039063 23.75683594 12.72109375 24.36914062 13 25 C12.67 25.66 12.34 26.32 12 27 C8.72941866 24.09205634 7.24229678 21.70460495 5.875 17.5625 C3.7180603 11.07731982 3.7180603 11.07731982 0.875 4.875 C0 3 0 3 0 0 Z " fill="#EE582B" transform="translate(116,523)"/>
<path d="M0 0 C4.47531555 1.40652774 6.76271706 3.6797098 10 7 C11.31747324 7.69748583 12.64914193 8.36959957 14 9 C14.433125 9.474375 14.86625 9.94875 15.3125 10.4375 C18.15150097 13.0662046 22.09143062 15 26 15 C27.5 16.375 27.5 16.375 29 18 C29.66 18.66 30.32 19.32 31 20 C18.71590966 18.05334088 7.40801531 9.71460189 0 0 Z " fill="#FCCD2D" transform="translate(82,626)"/>
<path d="M0 0 C2.64 0.66 5.28 1.32 8 2 C8 2.66 8 3.32 8 4 C9.2375 4.309375 9.2375 4.309375 10.5 4.625 C17.51093701 7.37929668 22.48759081 12.07746294 27 18 C23.21542046 18 22.86997011 17.16723773 20.25 14.5625 C15.53831651 10.18680721 10.42645354 7.06050078 4.87792969 3.88305664 C3.23977951 2.94293906 1.61807856 1.9742581 0 1 C0 0.67 0 0.34 0 0 Z " fill="#B21E8B" transform="translate(251,407)"/>
<path d="M0 0 C9.40954956 4.11137976 16.22590535 14.27996997 21 23 C21.71875 25.859375 21.71875 25.859375 22 28 C19.45868642 25.69716746 17.92889705 23.32686207 16.3125 20.3125 C15.87550781 19.50425781 15.43851562 18.69601562 14.98828125 17.86328125 C14.66214844 17.24839844 14.33601563 16.63351562 14 16 C13.34 16 12.68 16 12 16 C11.814375 15.29875 11.62875 14.5975 11.4375 13.875 C9.71857344 10.43714688 7.63863471 8.86539166 4.6875 6.4921875 C2.55330826 4.60500869 1.26793186 2.53586373 0 0 Z " fill="#A01492" transform="translate(334,360)"/>
<path d="M0 0 C0.33 0 0.66 0 1 0 C2.74662253 8.4420089 0.65527082 14.98860348 -2 23 C-2.66 23 -3.32 23 -4 23 C-4.66 24.32 -5.32 25.64 -6 27 C-6 24 -6 24 -4.4375 20.9375 C-3.7259375 19.4834375 -3.7259375 19.4834375 -3 18 C-3.33 17.34 -3.66 16.68 -4 16 C-3.34 16 -2.68 16 -2 16 C-2.020625 15.195625 -2.04125 14.39125 -2.0625 13.5625 C-2 11 -2 11 -1 10 C-0.76712992 8.31816052 -0.58735834 6.6287584 -0.4375 4.9375 C-0.35371094 4.01839844 -0.26992188 3.09929688 -0.18359375 2.15234375 C-0.12300781 1.44207031 -0.06242187 0.73179687 0 0 Z " fill="#EA225A" transform="translate(361,577)"/>
<path d="M0 0 C1.670625 0.061875 1.670625 0.061875 3.375 0.125 C3.375 1.115 3.375 2.105 3.375 3.125 C0.735 3.125 -1.905 3.125 -4.625 3.125 C-4.625 14.675 -4.625 26.225 -4.625 38.125 C-4.955 38.125 -5.285 38.125 -5.625 38.125 C-5.67436158 33.03468245 -5.71070105 27.94450357 -5.73486328 22.85400391 C-5.74493376 21.12155735 -5.75859089 19.38912784 -5.77587891 17.65673828 C-5.80008162 15.16955361 -5.81147239 12.68259325 -5.8203125 10.1953125 C-5.83063507 9.41817902 -5.84095764 8.64104553 -5.85159302 7.84036255 C-5.85199271 5.93374507 -5.7473214 4.02768964 -5.625 2.125 C-3.625 0.125 -3.625 0.125 0 0 Z " fill="#15191B" transform="translate(778.625,414.875)"/>
<path d="M0 0 C0.89589844 0.00322266 1.79179687 0.00644531 2.71484375 0.00976562 C4.12056641 0.02233398 4.12056641 0.02233398 5.5546875 0.03515625 C6.49957031 0.03966797 7.44445312 0.04417969 8.41796875 0.04882812 C10.75527137 0.06063268 13.09244811 0.07709866 15.4296875 0.09765625 C13.13415604 2.73588244 12.69402274 3.06968904 8.99609375 3.4609375 C7.66135165 3.45961204 6.326547 3.44213994 4.9921875 3.41015625 C3.67347656 3.40628906 2.35476562 3.40242187 0.99609375 3.3984375 C-2.18795836 3.12990299 -3.92823715 2.79371996 -6.5703125 1.09765625 C-4.16971433 -0.10264283 -2.67670601 -0.01694118 0 0 Z " fill="#FDD335" transform="translate(194.5703125,650.90234375)"/>
<path d="M0 0 C9.17952095 -0.6223404 17.8802805 1.63540501 26 6 C26 6.99 26 7.98 26 9 C25.484375 8.731875 24.96875 8.46375 24.4375 8.1875 C16.41187561 4.27758042 8.81279515 2.35581464 0 1 C0 0.67 0 0.34 0 0 Z " fill="#B8197F" transform="translate(216,430)"/>
<path d="M0 0 C2.61815739 2.61815739 2.26112488 4.50468338 2.2734375 8.07226562 C2.26570313 8.85279297 2.25796875 9.63332031 2.25 10.4375 C2.25773437 11.21416016 2.26546875 11.99082031 2.2734375 12.79101562 C2.25996806 16.70052168 2.21368645 18.67947032 0 22 C-1.90417311 3.80834621 -1.90417311 3.80834621 0 0 Z " fill="#D62D6D" transform="translate(276,483)"/>
<path d="M0 0 C2.24973447 -0.054138 4.49984383 -0.09285491 6.75 -0.125 C8.00296875 -0.14820313 9.2559375 -0.17140625 10.546875 -0.1953125 C13.72820492 -0.01537302 15.36521896 0.31001418 18 2 C14.81175432 3.59412284 11.37103338 3.10174735 7.875 3.0625 C7.12089844 3.05798828 6.36679688 3.05347656 5.58984375 3.04882812 C3.72652873 3.03703499 1.86325445 3.01909942 0 3 C0 2.01 0 1.02 0 0 Z " fill="#1B1E1F" transform="translate(1382,448)"/>
<path d="M0 0 C0.66 0.33 1.32 0.66 2 1 C-3.35602273 6.90922696 -11.38189243 9.95611748 -19 12 C-20.32 12 -21.64 12 -23 12 C-23 11.34 -23 10.68 -23 10 C-21.515 9.5978125 -21.515 9.5978125 -20 9.1875 C-15.90734147 8.01581147 -11.95718667 6.56428906 -8 5 C-7.33097656 4.73960937 -6.66195313 4.47921875 -5.97265625 4.2109375 C-2.30583074 2.91666118 -2.30583074 2.91666118 0 0 Z " fill="#F83829" transform="translate(325,636)"/>
<path d="M0 0 C0.99 0.33 1.98 0.66 3 1 C4.25433458 4.76300374 4.10695422 8.27210909 4.0625 12.1875 C4.05798828 12.93708984 4.05347656 13.68667969 4.04882812 14.45898438 C4.03706354 16.30602383 4.01912865 18.15302213 4 20 C3.01 20.33 2.02 20.66 1 21 C1.33 18.36 1.66 15.72 2 13 C1.67 13 1.34 13 1 13 C0.67 8.71 0.34 4.42 0 0 Z " fill="#151718" transform="translate(744,535)"/>
<path d="M0 0 C0.78375 0.00451172 1.5675 0.00902344 2.375 0.01367188 C4.29170014 0.02535907 6.20836048 0.04329092 8.125 0.0625 C5.02894451 2.12653699 3.83089982 2.39362676 0.25 2.6875 C-0.59304687 2.76226562 -1.43609375 2.83703125 -2.3046875 2.9140625 C-4.04070812 3.01431901 -5.78062568 3.05982459 -7.51953125 3.0546875 C-10.08586506 3.06319939 -12.37851568 3.49187501 -14.875 4.0625 C-14.875 3.0725 -14.875 2.0825 -14.875 1.0625 C-9.85891475 0.0448597 -5.08891694 -0.05606434 0 0 Z " fill="#BC2C8E" transform="translate(210.875,428.9375)"/>
<path d="M0 0 C0.74886475 0.00523682 1.49772949 0.01047363 2.26928711 0.01586914 C3.07817383 0.0190918 3.88706055 0.02231445 4.72045898 0.02563477 C5.5705957 0.03401367 6.42073242 0.04239258 7.29663086 0.05102539 C8.15063477 0.05553711 9.00463867 0.06004883 9.88452148 0.06469727 C12.00108749 0.07652166 14.11761771 0.0944577 16.23413086 0.11352539 C13.98895384 2.67538964 13.52872249 3.08094867 9.94897461 3.47680664 C8.70245117 3.46004883 7.45592773 3.44329102 6.17163086 3.42602539 C4.9225293 3.4221582 3.67342773 3.41829102 2.38647461 3.41430664 C-0.76586914 3.11352539 -0.76586914 3.11352539 -2.76586914 1.11352539 C-1.76586914 0.11352539 -1.76586914 0.11352539 0 0 Z " fill="#17191B" transform="translate(1051.765869140625,586.886474609375)"/>
<path d="M0 0 C0.33 0 0.66 0 1 0 C1.34329116 3.69037996 1.33827599 5.49258602 -0.75 8.625 C-2.79973773 10.78861205 -4.85452627 12.93115033 -7 15 C-7.33 14.01 -7.66 13.02 -8 12 C-6.85546875 9.84375 -6.85546875 9.84375 -5.1875 7.5 C-4.64480469 6.7265625 -4.10210937 5.953125 -3.54296875 5.15625 C-3.03378906 4.4446875 -2.52460938 3.733125 -2 3 C-1.34 2.01 -0.68 1.02 0 0 Z " fill="#E62A4B" transform="translate(294,543)"/>
<path d="M0 0 C1.03853578 2.70019303 1.06290167 3.82597206 0.0625 6.59375 C-1.23011391 10.73771813 -1.44954828 14.56181183 -1.625 18.875 C-1.66367188 19.65875 -1.70234375 20.4425 -1.7421875 21.25 C-1.83566622 23.16631367 -1.91888495 25.08312319 -2 27 C-2.33 27 -2.66 27 -3 27 C-3.05814085 23.41673499 -3.09364357 19.83359162 -3.125 16.25 C-3.14175781 15.23421875 -3.15851563 14.2184375 -3.17578125 13.171875 C-3.18222656 12.1921875 -3.18867188 11.2125 -3.1953125 10.203125 C-3.20578613 9.30239258 -3.21625977 8.40166016 -3.22705078 7.47363281 C-2.95188098 4.4757614 -2.15671185 2.15671185 0 0 Z " fill="#CE1E57" transform="translate(147,477)"/>
<path d="M0 0 C0.66 0 1.32 0 2 0 C6.53636254 4.68269681 8.84130427 10.03767972 9.1875 16.5 C9.125625 17.325 9.06375 18.15 9 19 C6.7891337 16.30851059 5.76794118 14.35974266 5 11 C3.46482303 7.26217781 1.86459849 3.58576633 0 0 Z " fill="#AB2093" transform="translate(352,385)"/>
<path d="M0 0 C0.66 0 1.32 0 2 0 C3 3 3 3 2 6 C2.99 6 3.98 6 5 6 C5.04898438 6.71027344 5.09796875 7.42054688 5.1484375 8.15234375 C5.22320312 9.07144531 5.29796875 9.99054687 5.375 10.9375 C5.44460937 11.85402344 5.51421875 12.77054688 5.5859375 13.71484375 C5.72257813 14.46894531 5.85921875 15.22304688 6 16 C6.66 16.33 7.32 16.66 8 17 C7.01 17 6.02 17 5 17 C4.15838146 14.91999989 3.32699237 12.83585854 2.5 10.75 C2.0359375 9.58984375 1.571875 8.4296875 1.09375 7.234375 C0 4 0 4 0 0 Z " fill="#E33E3B" transform="translate(147,514)"/>
<path d="M0 0 C0.556875 0.70125 1.11375 1.4025 1.6875 2.125 C2.89907369 3.6312808 4.11587354 5.13425574 5.37890625 6.59765625 C9 10.79647436 9 10.79647436 9 13 C9.66 13 10.32 13 11 13 C10.67 13.99 10.34 14.98 10 16 C8.53618641 14.42173185 7.07914837 12.83717771 5.625 11.25 C4.81289062 10.36828125 4.00078125 9.4865625 3.1640625 8.578125 C1.33018934 6.39336636 -0.03649165 4.66996289 -1 2 C-0.67 1.34 -0.34 0.68 0 0 Z " fill="#FCA822" transform="translate(71,610)"/>
<path d="M0 0 C0.66 0.33 1.32 0.66 2 1 C1.44854729 6.23880078 0.57077907 10.97350697 -1 16 C-1.66 16 -2.32 16 -3 16 C-3.33 16.66 -3.66 17.32 -4 18 C-2.83445193 11.9490696 -1.54656904 5.96533774 0 0 Z " fill="#D71C59" transform="translate(305,510)"/>
<path d="M0 0 C0 0.66 0 1.32 0 2 C-1.8253125 1.9690625 -1.8253125 1.9690625 -3.6875 1.9375 C-6.16314708 1.92879825 -8.19106066 2.04094157 -10.625 2.5625 C-13.61697968 3.11365415 -16.04405191 2.61868681 -19 2 C-19 1.67 -19 1.34 -19 1 C-16.58440932 0.63645961 -14.16805703 0.28389449 -11.75 -0.0625 C-11.06808594 -0.16626953 -10.38617187 -0.27003906 -9.68359375 -0.37695312 C-6.2150075 -0.86524925 -3.33088887 -1.22762141 0 0 Z " fill="#17191A" transform="translate(906,508)"/>
<path d="M0 0 C6.4809022 5.83281198 7.86283326 11.59095119 9 20 C6.42743028 16.87079239 4.90063473 13.74388891 3.375 10 C2.94960938 8.96875 2.52421875 7.9375 2.0859375 6.875 C1.218043 4.57726493 0.51807674 2.39466582 0 0 Z " fill="#C11570" transform="translate(295,448)"/>
<path d="M0 0 C1.67098989 0.31093678 3.3370593 0.64854997 5 1 C6.69157394 1.13918537 8.38630373 1.2435836 10.08203125 1.31640625 C11.01337891 1.35830078 11.94472656 1.40019531 12.90429688 1.44335938 C13.86400391 1.48267578 14.82371094 1.52199219 15.8125 1.5625 C16.79154297 1.60568359 17.77058594 1.64886719 18.77929688 1.69335938 C21.18607027 1.7990226 23.59293983 1.90112327 26 2 C26 2.33 26 2.66 26 3 C22.25006521 3.05811773 18.50024648 3.09363593 14.75 3.125 C13.15478516 3.15013672 13.15478516 3.15013672 11.52734375 3.17578125 C9.99013672 3.18544922 9.99013672 3.18544922 8.421875 3.1953125 C7.00793457 3.21102295 7.00793457 3.21102295 5.56542969 3.22705078 C2.90048059 2.99119213 1.28136908 2.35661659 -1 1 C-0.67 0.67 -0.34 0.34 0 0 Z " fill="#FEC55D" transform="translate(229,651)"/>
<path d="M0 0 C0.33 0 0.66 0 1 0 C1.2553824 3.41523644 1.47470664 6.83186659 1.6875 10.25 C1.76033203 11.21808594 1.83316406 12.18617188 1.90820312 13.18359375 C1.96298828 14.11816406 2.01777344 15.05273438 2.07421875 16.015625 C2.13182373 16.87446289 2.18942871 17.73330078 2.2487793 18.61816406 C2 21 2 21 -1 25 C-0.67 16.75 -0.34 8.5 0 0 Z " fill="#CE0D55" transform="translate(307,484)"/>
<path d="M0 0 C0.33 0 0.66 0 1 0 C1 1.98 1 3.96 1 6 C1.66 6 2.32 6 3 6 C2.67 13.26 2.34 20.52 2 28 C1.67 28 1.34 28 1 28 C0.67 18.76 0.34 9.52 0 0 Z " fill="#9527A6" transform="translate(57,421)"/>
<path d="M0 0 C0.33 0.66 0.66 1.32 1 2 C-1.39531756 2.33745354 -3.79114268 2.6700829 -6.1875 3 C-6.86103516 3.09539062 -7.53457031 3.19078125 -8.22851562 3.2890625 C-11.84664577 3.78324613 -15.34796401 4.11346131 -19 4 C-13.51628146 -0.85098178 -6.91449339 -0.13828987 0 0 Z " fill="#A01392" transform="translate(205,399)"/>
<path d="M0 0 C2.4375 0.8125 2.4375 0.8125 5 2 C5.33 2.99 5.66 3.98 6 5 C6.66 5.33 7.32 5.66 8 6 C10.56294428 10.84111698 11.46704593 13.53191971 10 19 C9.67 19 9.34 19 9 19 C8.85304688 18.12988281 8.85304688 18.12988281 8.703125 17.2421875 C7.69391293 11.96992443 6.32604128 8.33393258 3 4 C2.4225 3.21625 1.845 2.4325 1.25 1.625 C0.8375 1.08875 0.425 0.5525 0 0 Z " fill="#AA158B" transform="translate(313,388)"/>
<path d="M0 0 C-3.16216947 1.8738782 -5.36165739 2.09833358 -9 2 C-9.33 2.33 -9.66 2.66 -10 3 C-11.99958364 3.04080783 -14.00045254 3.04254356 -16 3 C-15.67 2.01 -15.34 1.02 -15 0 C-9.65370398 -1.0024305 -5.37625234 -0.84888195 0 0 Z " fill="#FC842F" transform="translate(237,591)"/>
<path d="M0 0 C4.04301175 1.48518799 7.61146256 3.42877998 11.3125 5.625 C12.38113281 6.25664063 13.44976562 6.88828125 14.55078125 7.5390625 C15.76314453 8.26222656 15.76314453 8.26222656 17 9 C16.67 9.66 16.34 10.32 16 11 C14.02 10.34 12.04 9.68 10 9 C10 8.34 10 7.68 10 7 C8.68 7 7.36 7 6 7 C3.53171804 4.81872757 1.48126856 2.96253712 0 0 Z " fill="#FD9019" transform="translate(150,574)"/>
<path d="M0 0 C0.33 0 0.66 0 1 0 C1.15178302 9.05638678 0.69037426 17.97582223 0 27 C-0.33 27 -0.66 27 -1 27 C-1.19386492 24.35448944 -1.38038267 21.70882217 -1.5625 19.0625 C-1.61857422 18.30775391 -1.67464844 17.55300781 -1.73242188 16.77539062 C-1.86176157 14.85254042 -1.93516912 12.92610452 -2 11 C-1.67 10.67 -1.34 10.34 -1 10 C-0.76712992 8.31816052 -0.58735834 6.6287584 -0.4375 4.9375 C-0.35371094 4.01839844 -0.26992188 3.09929687 -0.18359375 2.15234375 C-0.12300781 1.44207031 -0.06242187 0.73179687 0 0 Z " fill="#CB207B" transform="translate(364,459)"/>
<path d="M0 0 C0.33 0 0.66 0 1 0 C1 4.95 1 9.9 1 15 C0.01 15.33 -0.98 15.66 -2 16 C-2.05449838 14.27119018 -2.09301688 12.54187288 -2.125 10.8125 C-2.14820313 9.84957031 -2.17140625 8.88664063 -2.1953125 7.89453125 C-1.9913544 4.87187222 -1.26874632 2.73230015 0 0 Z " fill="#151719" transform="translate(1363,505)"/>
<path d="M0 0 C0.66 0.33 1.32 0.66 2 1 C0.22054913 5.04420651 -2.39529673 8.46078487 -5 12 C-5.66 11.67 -6.32 11.34 -7 11 C-6.34 9.35 -5.68 7.7 -5 6 C-4.34 6 -3.68 6 -3 6 C-3 5.01 -3 4.02 -3 3 C-1.5 1.3125 -1.5 1.3125 0 0 Z " fill="#AF208B" transform="translate(136,431)"/>
<path d="M0 0 C1 3 1 3 -0.21484375 5.69921875 C-0.78332031 6.68535156 -1.35179687 7.67148437 -1.9375 8.6875 C-2.50339844 9.68136719 -3.06929688 10.67523437 -3.65234375 11.69921875 C-4.31943359 12.83810547 -4.31943359 12.83810547 -5 14 C-6 11 -6 11 -5 8 C-4.65772583 6.66893378 -4.32248257 5.33599921 -4 4 C-3.34 4 -2.68 4 -2 4 C-1.34 2.68 -0.68 1.36 0 0 Z " fill="#EB1441" transform="translate(357,600)"/>
<path d="M0 0 C0.66 0.33 1.32 0.66 2 1 C1.67 1.66 1.34 2.32 1 3 C1.66 3 2.32 3 3 3 C4.32 6.3 5.64 9.6 7 13 C6.01 13.495 6.01 13.495 5 14 C3.96958487 12.04669132 2.9509107 10.08718472 1.9375 8.125 C1.08478516 6.48917969 1.08478516 6.48917969 0.21484375 4.8203125 C-0.18605469 3.88960937 -0.58695313 2.95890625 -1 2 C-0.67 1.34 -0.34 0.68 0 0 Z " fill="#18191A" transform="translate(636,556)"/>
<path d="M0 0 C2.62901914 2.35838482 4.14649342 4.80122977 5.75 7.9375 C6.19859375 8.79214844 6.6471875 9.64679688 7.109375 10.52734375 C8.08377402 13.23258313 8.00579304 14.35672682 7 17 C5.82866942 14.54379149 4.66278278 12.08525083 3.5 9.625 C3.16613281 8.92632812 2.83226562 8.22765625 2.48828125 7.5078125 C0 2.2265625 0 2.2265625 0 0 Z " fill="#C7186B" transform="translate(267,461)"/>
<path d="M0 0 C1.08667969 0.29197266 1.08667969 0.29197266 2.1953125 0.58984375 C2.74960938 0.74582031 3.30390625 0.90179687 3.875 1.0625 C3.545 1.7225 3.215 2.3825 2.875 3.0625 C-1.085 2.7325 -5.045 2.4025 -9.125 2.0625 C-4.27357143 -1.17178571 -4.27357143 -1.17178571 0 0 Z " fill="#F87737" transform="translate(200.125,559.9375)"/>
<path d="M0 0 C1.0209375 0.433125 1.0209375 0.433125 2.0625 0.875 C5.32893093 2.12597355 8.62846123 3.07447955 12 4 C12 4.33 12 4.66 12 5 C7.17639811 5.19294408 3.50353262 4.75747614 -1 3 C-0.67 2.01 -0.34 1.02 0 0 Z " fill="#F96C26" transform="translate(182,556)"/>
<path d="M0 0 C0.99 0.33 1.98 0.66 3 1 C3.66666667 2.66666667 4.33333333 4.33333333 5 6 C6.56495408 8.10971658 8.25763692 10.02837862 10 12 C9.67 12.66 9.34 13.32 9 14 C1.33257403 5.92255125 1.33257403 5.92255125 0 0 Z " fill="#ED4C24" transform="translate(154,532)"/>
<path d="M0 0 C1.46726798 3.81489674 0.43336419 6.29011622 -1 10 C-1.66 10 -2.32 10 -3 10 C-3.66 11.32 -4.32 12.64 -5 14 C-5 11 -5 11 -3.4375 7.9375 C-2.963125 6.968125 -2.48875 5.99875 -2 5 C-2.33 4.34 -2.66 3.68 -3 3 C-2.01 3 -1.02 3 0 3 C0 2.01 0 1.02 0 0 Z " fill="#EA1C4D" transform="translate(360,590)"/>
<path d="M0 0 C3.99996286 1.33332095 4.83782337 3.4957827 7 7 C6.67 7.66 6.34 8.32 6 9 C3 8 3 8 1.3125 5.625 C0 3 0 3 0 0 Z " fill="#F67029" transform="translate(128,550)"/>
<path d="M0 0 C0.99 0.33 1.98 0.66 3 1 C2.67 4.3 2.34 7.6 2 11 C1.01 10.34 0.02 9.68 -1 9 C-0.67 6.03 -0.34 3.06 0 0 Z " fill="#171A1B" transform="translate(640,478)"/>
<path d="M0 0 C1.60517097 0.08733576 3.20921662 0.19552224 4.8125 0.3125 C6.15248047 0.39951172 6.15248047 0.39951172 7.51953125 0.48828125 C10.30604 1.06313581 11.24135754 1.8206856 13 4 C8.55790643 4.10834375 4.38585329 3.70173653 0 3 C0 2.01 0 1.02 0 0 Z " fill="#FC9F2E" transform="translate(188,590)"/>
<path d="M0 0 C-1.62249941 0.83819158 -3.24808497 1.6704116 -4.875 2.5 C-6.23238281 3.19609375 -6.23238281 3.19609375 -7.6171875 3.90625 C-10 5 -10 5 -12 5 C-12 4.01 -12 3.02 -12 2 C-10.37787941 1.47026689 -8.75218416 0.95146893 -7.125 0.4375 C-6.22007812 0.14746094 -5.31515625 -0.14257812 -4.3828125 -0.44140625 C-2 -1 -2 -1 0 0 Z " fill="#F24E2E" transform="translate(246,555)"/>
<path d="M0 0 C0.61875 0.18949219 1.2375 0.37898437 1.875 0.57421875 C-5.23889522 6.13002741 -5.23889522 6.13002741 -10.125 6.57421875 C-3.16515296 -0.63419425 -3.16515296 -0.63419425 0 0 Z " fill="#F23F2E" transform="translate(271.125,573.42578125)"/>
<path d="M0 0 C0 3 0 3 -2.3125 5.5625 C-5 8 -5 8 -8 10 C-8.99 9.67 -9.98 9.34 -11 9 C-9.6696875 8.1646875 -9.6696875 8.1646875 -8.3125 7.3125 C-5.15720622 5.22146208 -2.60131889 2.75433765 0 0 Z " fill="#08090A" transform="translate(1422,543)"/>
<path d="M0 0 C1.1171875 1.640625 1.1171875 1.640625 2 4 C1.3203125 6.796875 1.3203125 6.796875 0.125 9.75 C-0.26429687 10.73484375 -0.65359375 11.7196875 -1.0546875 12.734375 C-1.36664063 13.48203125 -1.67859375 14.2296875 -2 15 C-2.97161849 11.94145449 -2.99142062 10.01744728 -2.125 6.9375 C-1.94195312 6.26589844 -1.75890625 5.59429687 -1.5703125 4.90234375 C-1.07756153 3.25871552 -0.54261564 1.62784691 0 0 Z " fill="#B91B77" transform="translate(119,458)"/>
<path d="M0 0 C5.62586863 1.76813014 8.77840563 5.16760844 12 10 C6.74308545 8.56629603 3.48214849 5.00396901 0 1 C0 0.67 0 0.34 0 0 Z " fill="#FCBA1F" transform="translate(82,626)"/>
<path d="M0 0 C0.99 0 1.98 0 3 0 C3.38909985 1.45463481 3.76088029 2.91391207 4.125 4.375 C4.43824219 5.59316406 4.43824219 5.59316406 4.7578125 6.8359375 C4.83773437 7.55007813 4.91765625 8.26421875 5 9 C4.34 9.66 3.68 10.32 3 11 C1.72746564 7.35206816 0.67170806 3.8063457 0 0 Z " fill="#E85544" transform="translate(116,523)"/>
<path d="M0 0 C2.97 0.495 2.97 0.495 6 1 C5.01 2.485 5.01 2.485 4 4 C1.1796875 4.29296875 1.1796875 4.29296875 -2.125 4.1875 C-3.76855469 4.14689453 -3.76855469 4.14689453 -5.4453125 4.10546875 C-6.70988281 4.05326172 -6.70988281 4.05326172 -8 4 C-8 3.67 -8 3.34 -8 3 C-5.69 3 -3.38 3 -1 3 C-0.67 2.01 -0.34 1.02 0 0 Z " fill="#FD6727" transform="translate(285,648)"/>
<path d="M0 0 C1.423125 0.495 1.423125 0.495 2.875 1 C5.77062452 2.10159191 5.77062452 2.10159191 8 2 C8 2.66 8 3.32 8 4 C8.99 4.33 9.98 4.66 11 5 C9.741875 4.87625 8.48375 4.7525 7.1875 4.625 C6.12595703 4.52058594 6.12595703 4.52058594 5.04296875 4.4140625 C3 4 3 4 0 2 C0 1.34 0 0.68 0 0 Z " fill="#FCD83D" transform="translate(112,644)"/>
<path d="M0 0 C0.66 0 1.32 0 2 0 C2 2.31 2 4.62 2 7 C1.01 7.33 0.02 7.66 -1 8 C-1.625 5.125 -1.625 5.125 -2 2 C-1.34 1.34 -0.68 0.68 0 0 Z " fill="#C62A75" transform="translate(114,474)"/>
<path d="M0 0 C-0.33 0.99 -0.66 1.98 -1 3 C-4.73437848 3.87867729 -8.16774573 4.08912219 -12 4 C-8.36043372 1.57362248 -4.44144233 0 0 0 Z " fill="#FB6A21" transform="translate(244,587)"/>
<path d="M0 0 C0.6875 1.625 0.6875 1.625 1 4 C-0.4375 7.25 -0.4375 7.25 -2 10 C-2.66 9.01 -3.32 8.02 -4 7 C-2.68 4.69 -1.36 2.38 0 0 Z " fill="#E12452" transform="translate(298,535)"/>
<path d="M0 0 C0.66 0.33 1.32 0.66 2 1 C1.33333333 4.33333333 0.66666667 7.66666667 0 11 C-0.66 11 -1.32 11 -2 11 C-1.125 3.375 -1.125 3.375 0 0 Z " fill="#202222" transform="translate(855,478)"/>
<path d="M0 0 C0 0.66 0 1.32 0 2 C-3 2 -6 2 -9 2 C-9 1.34 -9 0.68 -9 0 C-5.62182575 -0.84454356 -3.32534757 -1.10844919 0 0 Z " fill="#181B1D" transform="translate(1243,450)"/>
<path d="M0 0 C0.66 0.66 1.32 1.32 2 2 C-2.39453125 6.00390625 -2.39453125 6.00390625 -4 7 C-4.99 6.67 -5.98 6.34 -7 6 C-4.74259377 3.66475218 -2.7194239 1.81294927 0 0 Z " fill="#BA2484" transform="translate(174,439)"/>
<path d="M0 0 C3.3 0 6.6 0 10 0 C10 0.66 10 1.32 10 2 C6.7 2.33 3.4 2.66 0 3 C0 2.01 0 1.02 0 0 Z " fill="#FDE55C" transform="translate(139,650)"/>
<path d="M0 0 C0.66 0 1.32 0 2 0 C2.33 1.32 2.66 2.64 3 4 C3.66 4 4.32 4 5 4 C5.33 5.32 5.66 6.64 6 8 C5.01 8.495 5.01 8.495 4 9 C0 2.25 0 2.25 0 0 Z " fill="#171A1A" transform="translate(851,565)"/>
<path d="M0 0 C0 3.62453269 -0.92469613 5.07920195 -3 8 C-3.99 8.33 -4.98 8.66 -6 9 C-4.47291037 5.56404834 -2.40072955 2.88087546 0 0 Z " fill="#E92538" transform="translate(286,556)"/>
<path d="M0 0 C0.33 0 0.66 0 1 0 C1.33 2.97 1.66 5.94 2 9 C1.01 9.495 1.01 9.495 0 10 C-1.125 3.375 -1.125 3.375 0 0 Z " fill="#1F2223" transform="translate(837,571)"/>
<path d="M0 0 C0.99 0.33 1.98 0.66 3 1 C-0.465 3.97 -0.465 3.97 -4 7 C-4.66 6.67 -5.32 6.34 -6 6 C-5 4 -5 4 -2 3 C-1.34 2.01 -0.68 1.02 0 0 Z " fill="#EC3528" transform="translate(252,547)"/>
<path d="M0 0 C0.66 0 1.32 0 2 0 C2.33 2.97 2.66 5.94 3 9 C0.86928411 6.40608501 -0.53582673 4.36525621 -1 1 C-0.67 0.67 -0.34 0.34 0 0 Z " fill="#F98720" transform="translate(63,593)"/>
<path d="M0 0 C0.66 0.33 1.32 0.66 2 1 C0.02 2.32 -1.96 3.64 -4 5 C-4.99 4.34 -5.98 3.68 -7 3 C-4.69631264 1.93347808 -2.35981813 0.93578995 0 0 Z " fill="#F65720" transform="translate(251,584)"/>
<path d="M0 0 C4.40114397 0.50298788 6.71195019 2.08772731 10 5 C6.05140217 4.4359146 3.29120954 3.2568294 0 1 C0 0.67 0 0.34 0 0 Z " fill="#F76218" transform="translate(172,553)"/>
<path d="M0 0 C1 2 1 2 0.1875 5 C-1 8 -1 8 -3 10 C-2.25 3.375 -2.25 3.375 0 0 Z " fill="#C41763" transform="translate(149,469)"/>
<path d="M0 0 C1 2 1 2 0.44140625 3.9453125 C0.15136719 4.66460937 -0.13867188 5.38390625 -0.4375 6.125 C-0.72496094 6.84945313 -1.01242188 7.57390625 -1.30859375 8.3203125 C-1.53675781 8.87460937 -1.76492187 9.42890625 -2 10 C-2.66 8.68 -3.32 7.36 -4 6 C-2.68 4.02 -1.36 2.04 0 0 Z " fill="#C01E6E" transform="translate(153,461)"/>
</svg>
